M48
; DRILL file {KiCad 5.1.12-84ad8e8a86~92~ubuntu20.04.1} date Thu 04 Aug 2022 03:06:26 PM
; FORMAT={-:-/ absolute / metric / decimal}
; #@! TF.CreationDate,2022-08-04T15:06:26-04:00
; #@! TF.GenerationSoftware,Kicad,Pcbnew,5.1.12-84ad8e8a86~92~ubuntu20.04.1
; #@! TF.FileFunction,Plated,1,2,PTH
FMAT,2
METRIC
T1C0.400
T2C0.800
T3C1.000
T4C1.100
%
G90
G05
T1
X108.966Y-71.628
X109.22Y-69.088
X109.22Y-117.856
X109.728Y-76.2
X109.982Y-79.502
X115.316Y-117.856
X117.602Y-93.98
X119.126Y-88.646
X120.65Y-96.774
X120.904Y-109.728
X120.904Y-123.698
X120.904Y-130.81
X121.158Y-87.63
X121.92Y-93.98
X123.19Y-101.563
X123.444Y-109.728
X124.714Y-86.106
X125.984Y-102.362
X127.254Y-86.106
X127.254Y-130.81
X128.524Y-93.218
X128.778Y-131.318
X129.54Y-87.339
X129.794Y-115.316
X131.064Y-101.6
X131.572Y-85.344
X132.334Y-97.536
X133.604Y-98.552
X136.144Y-131.064
X136.906Y-116.332
X137.16Y-66.802
X137.414Y-92.202
X138.684Y-116.332
X138.684Y-131.064
X141.224Y-96.774
X141.224Y-131.064
X141.224Y-60.706
X144.148Y-109.384
X147.574Y-103.632
X148.844Y-109.982
X148.844Y-132.08
X149.606Y-108.458
X150.114Y-77.978
X151.638Y-73.66
X152.4Y-79.248
X152.654Y-102.616
X153.924Y-128.016
X155.194Y-101.6
X155.194Y-109.22
X156.21Y-92.456
X156.21Y-111.252
X156.464Y-78.486
X157.734Y-79.502
X159.004Y-81.026
X160.274Y-99.568
X160.274Y-108.712
X162.814Y-88.138
X162.814Y-109.982
X165.1Y-101.854
X165.354Y-88.138
X165.354Y-107.696
X165.354Y-118.872
X167.894Y-110.998
X169.164Y-106.934
X172.466Y-83.312
X173.19Y-119.708
X173.228Y-72.898
X173.228Y-102.87
X173.444Y-93.434
X173.736Y-98.298
X174.498Y-118.872
X174.752Y-87.884
X175.297Y-120.433
X176.022Y-118.364
X176.747Y-119.417
T2
X107.268Y-122.428
X112.268Y-122.428
X115.57Y-63.246
X115.57Y-70.866
X115.57Y-75.692
X115.57Y-83.312
X115.57Y-86.106
X115.57Y-98.806
X115.57Y-101.6
X115.57Y-114.3
X115.824Y-125.984
X115.824Y-133.604
X118.11Y-59.944
X118.11Y-63.246
X118.11Y-70.866
X118.11Y-75.692
X118.11Y-83.312
X118.364Y-125.984
X118.364Y-133.604
X120.65Y-59.944
X120.65Y-63.246
X120.65Y-70.866
X120.65Y-75.692
X120.65Y-83.312
X120.904Y-90.17
X120.904Y-105.41
X120.904Y-113.284
X120.904Y-120.904
X120.904Y-125.984
X120.904Y-133.604
X123.19Y-59.944
X123.19Y-63.246
X123.19Y-70.866
X123.19Y-75.692
X123.19Y-83.312
X123.444Y-90.17
X123.444Y-105.41
X123.444Y-113.284
X123.444Y-120.904
X123.444Y-125.984
X123.444Y-133.604
X125.73Y-59.944
X125.73Y-63.246
X125.73Y-70.866
X125.73Y-75.692
X125.73Y-83.312
X125.984Y-90.17
X125.984Y-105.41
X125.984Y-113.284
X125.984Y-120.904
X125.984Y-125.984
X125.984Y-133.604
X128.27Y-59.944
X128.27Y-63.246
X128.27Y-70.866
X128.27Y-75.692
X128.27Y-83.312
X128.524Y-90.17
X128.524Y-105.41
X128.524Y-113.284
X128.524Y-120.904
X128.524Y-125.984
X128.524Y-133.604
X130.81Y-59.944
X130.81Y-63.246
X130.81Y-70.866
X130.81Y-75.692
X130.81Y-83.312
X131.064Y-90.17
X131.064Y-105.41
X131.064Y-113.284
X131.064Y-120.904
X131.064Y-125.984
X131.064Y-133.604
X133.35Y-59.944
X133.35Y-63.246
X133.35Y-70.866
X133.35Y-75.692
X133.35Y-83.312
X133.604Y-90.17
X133.604Y-105.41
X133.604Y-113.284
X133.604Y-120.904
X135.89Y-59.944
X135.89Y-63.246
X135.89Y-70.866
X135.89Y-75.692
X135.89Y-83.312
X136.144Y-90.17
X136.144Y-105.41
X136.144Y-113.284
X136.144Y-120.904
X136.144Y-125.984
X136.144Y-133.604
X136.732Y-109.728
X138.43Y-59.944
X138.43Y-63.246
X138.43Y-70.866
X138.43Y-75.692
X138.43Y-83.312
X138.684Y-90.17
X138.684Y-105.41
X138.684Y-113.284
X138.684Y-120.904
X138.684Y-125.984
X138.684Y-133.604
X141.224Y-90.17
X141.224Y-105.41
X141.224Y-125.984
X141.224Y-133.604
X141.732Y-109.728
X143.764Y-90.17
X143.764Y-105.41
X143.764Y-125.984
X143.764Y-133.604
X146.304Y-63.246
X146.304Y-70.866
X146.304Y-75.692
X146.304Y-83.312
X146.304Y-90.17
X146.304Y-105.41
X146.304Y-113.284
X146.304Y-120.904
X146.304Y-125.984
X146.304Y-133.604
X148.844Y-63.246
X148.844Y-70.866
X148.844Y-75.692
X148.844Y-83.312
X148.844Y-90.17
X148.844Y-105.41
X148.844Y-113.284
X148.844Y-120.904
X148.844Y-125.984
X148.844Y-133.604
X151.384Y-63.246
X151.384Y-70.866
X151.384Y-75.692
X151.384Y-83.312
X151.384Y-90.17
X151.384Y-105.41
X151.384Y-113.284
X151.384Y-120.904
X151.384Y-125.984
X151.384Y-133.604
X153.924Y-63.246
X153.924Y-70.866
X153.924Y-75.692
X153.924Y-83.312
X153.924Y-90.17
X153.924Y-105.41
X153.924Y-113.284
X153.924Y-120.904
X156.464Y-63.246
X156.464Y-70.866
X156.464Y-75.692
X156.464Y-83.312
X156.464Y-90.17
X156.464Y-105.41
X156.464Y-113.284
X156.464Y-120.904
X156.464Y-125.984
X156.464Y-133.604
X159.004Y-63.246
X159.004Y-70.866
X159.004Y-75.692
X159.004Y-83.312
X159.004Y-90.17
X159.004Y-105.41
X159.004Y-113.284
X159.004Y-120.904
X159.004Y-125.984
X159.004Y-133.604
X161.544Y-63.246
X161.544Y-70.866
X161.544Y-75.692
X161.544Y-83.312
X161.544Y-90.17
X161.544Y-105.41
X161.544Y-113.284
X161.544Y-120.904
X161.544Y-125.984
X161.544Y-133.604
X164.084Y-63.246
X164.084Y-70.866
X164.084Y-75.692
X164.084Y-83.312
X164.084Y-90.17
X164.084Y-105.41
X164.084Y-113.284
X164.084Y-120.904
X164.084Y-125.984
X164.084Y-133.604
X166.624Y-75.692
X166.624Y-83.312
X166.624Y-90.17
X166.624Y-105.41
X166.624Y-113.284
X166.624Y-120.904
X166.624Y-125.984
X166.624Y-133.604
X169.164Y-75.692
X169.164Y-83.312
X169.164Y-90.17
X169.164Y-105.41
X169.164Y-113.284
X169.164Y-120.904
X169.164Y-125.984
X169.164Y-133.604
X169.418Y-62.484
X169.418Y-67.484
X171.704Y-125.984
X171.704Y-133.604
X174.244Y-65.532
X174.244Y-78.232
T3
X107.188Y-67.818
X107.188Y-70.358
X107.188Y-72.898
X107.188Y-75.438
X107.188Y-77.978
X107.188Y-80.518
X107.188Y-83.058
X107.188Y-85.598
X107.188Y-88.138
X107.188Y-90.678
X107.188Y-93.218
X107.188Y-95.758
X107.188Y-98.298
X107.188Y-100.838
X107.188Y-103.378
X107.188Y-105.918
X107.188Y-108.458
X107.188Y-110.998
X107.188Y-113.538
X107.188Y-116.078
X178.562Y-67.818
X178.562Y-70.358
X178.562Y-72.898
X178.562Y-75.438
X178.562Y-77.978
X178.562Y-80.518
X178.562Y-83.058
X178.562Y-85.598
X178.562Y-88.138
X178.562Y-90.678
X178.562Y-93.218
X178.562Y-95.758
X178.562Y-98.298
X178.562Y-100.838
X178.562Y-103.378
X178.562Y-105.918
X178.562Y-108.458
X178.562Y-110.998
X178.562Y-113.538
X178.562Y-116.078
T4
X172.974Y-123.19
T0
M30
