G04 #@! TF.GenerationSoftware,KiCad,Pcbnew,5.1.12-84ad8e8a86~92~ubuntu20.04.1*
G04 #@! TF.CreationDate,2022-08-04T15:06:03-04:00*
G04 #@! TF.ProjectId,burgertime-cpu7,62757267-6572-4746-996d-652d63707537,v1.1*
G04 #@! TF.SameCoordinates,Original*
G04 #@! TF.FileFunction,Legend,Top*
G04 #@! TF.FilePolarity,Positive*
%FSLAX46Y46*%
G04 Gerber Fmt 4.6, Leading zero omitted, Abs format (unit mm)*
G04 Created by KiCad (PCBNEW 5.1.12-84ad8e8a86~92~ubuntu20.04.1) date 2022-08-04 15:06:03*
%MOMM*%
%LPD*%
G01*
G04 APERTURE LIST*
%ADD10C,0.150000*%
%ADD11C,0.120000*%
%ADD12C,1.600000*%
%ADD13R,1.600000X1.600000*%
%ADD14O,1.600000X1.600000*%
%ADD15O,1.700000X1.700000*%
%ADD16R,1.700000X1.700000*%
G04 APERTURE END LIST*
D10*
X152154285Y-60396380D02*
X152154285Y-59396380D01*
X152487619Y-60110666D01*
X152820952Y-59396380D01*
X152820952Y-60396380D01*
X153297142Y-60396380D02*
X153297142Y-59396380D01*
X153535238Y-59396380D01*
X153678095Y-59444000D01*
X153773333Y-59539238D01*
X153820952Y-59634476D01*
X153868571Y-59824952D01*
X153868571Y-59967809D01*
X153820952Y-60158285D01*
X153773333Y-60253523D01*
X153678095Y-60348761D01*
X153535238Y-60396380D01*
X153297142Y-60396380D01*
X154963809Y-59729714D02*
X155201904Y-60396380D01*
X155440000Y-59729714D01*
X156344761Y-60396380D02*
X155773333Y-60396380D01*
X156059047Y-60396380D02*
X156059047Y-59396380D01*
X155963809Y-59539238D01*
X155868571Y-59634476D01*
X155773333Y-59682095D01*
X156773333Y-60301142D02*
X156820952Y-60348761D01*
X156773333Y-60396380D01*
X156725714Y-60348761D01*
X156773333Y-60301142D01*
X156773333Y-60396380D01*
X157773333Y-60396380D02*
X157201904Y-60396380D01*
X157487619Y-60396380D02*
X157487619Y-59396380D01*
X157392380Y-59539238D01*
X157297142Y-59634476D01*
X157201904Y-59682095D01*
X148551047Y-57840571D02*
X148693904Y-57888190D01*
X148741523Y-57935809D01*
X148789142Y-58031047D01*
X148789142Y-58173904D01*
X148741523Y-58269142D01*
X148693904Y-58316761D01*
X148598666Y-58364380D01*
X148217714Y-58364380D01*
X148217714Y-57364380D01*
X148551047Y-57364380D01*
X148646285Y-57412000D01*
X148693904Y-57459619D01*
X148741523Y-57554857D01*
X148741523Y-57650095D01*
X148693904Y-57745333D01*
X148646285Y-57792952D01*
X148551047Y-57840571D01*
X148217714Y-57840571D01*
X149646285Y-57697714D02*
X149646285Y-58364380D01*
X149217714Y-57697714D02*
X149217714Y-58221523D01*
X149265333Y-58316761D01*
X149360571Y-58364380D01*
X149503428Y-58364380D01*
X149598666Y-58316761D01*
X149646285Y-58269142D01*
X150122476Y-58364380D02*
X150122476Y-57697714D01*
X150122476Y-57888190D02*
X150170095Y-57792952D01*
X150217714Y-57745333D01*
X150312952Y-57697714D01*
X150408190Y-57697714D01*
X151170095Y-57697714D02*
X151170095Y-58507238D01*
X151122476Y-58602476D01*
X151074857Y-58650095D01*
X150979619Y-58697714D01*
X150836761Y-58697714D01*
X150741523Y-58650095D01*
X151170095Y-58316761D02*
X151074857Y-58364380D01*
X150884380Y-58364380D01*
X150789142Y-58316761D01*
X150741523Y-58269142D01*
X150693904Y-58173904D01*
X150693904Y-57888190D01*
X150741523Y-57792952D01*
X150789142Y-57745333D01*
X150884380Y-57697714D01*
X151074857Y-57697714D01*
X151170095Y-57745333D01*
X152027238Y-58316761D02*
X151932000Y-58364380D01*
X151741523Y-58364380D01*
X151646285Y-58316761D01*
X151598666Y-58221523D01*
X151598666Y-57840571D01*
X151646285Y-57745333D01*
X151741523Y-57697714D01*
X151932000Y-57697714D01*
X152027238Y-57745333D01*
X152074857Y-57840571D01*
X152074857Y-57935809D01*
X151598666Y-58031047D01*
X152503428Y-58364380D02*
X152503428Y-57697714D01*
X152503428Y-57888190D02*
X152551047Y-57792952D01*
X152598666Y-57745333D01*
X152693904Y-57697714D01*
X152789142Y-57697714D01*
X152979619Y-57697714D02*
X153360571Y-57697714D01*
X153122476Y-57364380D02*
X153122476Y-58221523D01*
X153170095Y-58316761D01*
X153265333Y-58364380D01*
X153360571Y-58364380D01*
X153693904Y-58364380D02*
X153693904Y-57697714D01*
X153693904Y-57364380D02*
X153646285Y-57412000D01*
X153693904Y-57459619D01*
X153741523Y-57412000D01*
X153693904Y-57364380D01*
X153693904Y-57459619D01*
X154170095Y-58364380D02*
X154170095Y-57697714D01*
X154170095Y-57792952D02*
X154217714Y-57745333D01*
X154312952Y-57697714D01*
X154455809Y-57697714D01*
X154551047Y-57745333D01*
X154598666Y-57840571D01*
X154598666Y-58364380D01*
X154598666Y-57840571D02*
X154646285Y-57745333D01*
X154741523Y-57697714D01*
X154884380Y-57697714D01*
X154979619Y-57745333D01*
X155027238Y-57840571D01*
X155027238Y-58364380D01*
X155884380Y-58316761D02*
X155789142Y-58364380D01*
X155598666Y-58364380D01*
X155503428Y-58316761D01*
X155455809Y-58221523D01*
X155455809Y-57840571D01*
X155503428Y-57745333D01*
X155598666Y-57697714D01*
X155789142Y-57697714D01*
X155884380Y-57745333D01*
X155932000Y-57840571D01*
X155932000Y-57935809D01*
X155455809Y-58031047D01*
X157693904Y-58269142D02*
X157646285Y-58316761D01*
X157503428Y-58364380D01*
X157408190Y-58364380D01*
X157265333Y-58316761D01*
X157170095Y-58221523D01*
X157122476Y-58126285D01*
X157074857Y-57935809D01*
X157074857Y-57792952D01*
X157122476Y-57602476D01*
X157170095Y-57507238D01*
X157265333Y-57412000D01*
X157408190Y-57364380D01*
X157503428Y-57364380D01*
X157646285Y-57412000D01*
X157693904Y-57459619D01*
X158122476Y-58364380D02*
X158122476Y-57364380D01*
X158503428Y-57364380D01*
X158598666Y-57412000D01*
X158646285Y-57459619D01*
X158693904Y-57554857D01*
X158693904Y-57697714D01*
X158646285Y-57792952D01*
X158598666Y-57840571D01*
X158503428Y-57888190D01*
X158122476Y-57888190D01*
X159122476Y-57364380D02*
X159122476Y-58173904D01*
X159170095Y-58269142D01*
X159217714Y-58316761D01*
X159312952Y-58364380D01*
X159503428Y-58364380D01*
X159598666Y-58316761D01*
X159646285Y-58269142D01*
X159693904Y-58173904D01*
X159693904Y-57364380D01*
X160074857Y-57364380D02*
X160741523Y-57364380D01*
X160312952Y-58364380D01*
X137025238Y-85304380D02*
X137263333Y-86304380D01*
X137453809Y-85590095D01*
X137644285Y-86304380D01*
X137882380Y-85304380D01*
X138263333Y-86304380D02*
X138263333Y-85637714D01*
X138263333Y-85304380D02*
X138215714Y-85352000D01*
X138263333Y-85399619D01*
X138310952Y-85352000D01*
X138263333Y-85304380D01*
X138263333Y-85399619D01*
X138739523Y-86304380D02*
X138739523Y-85637714D01*
X138739523Y-85828190D02*
X138787142Y-85732952D01*
X138834761Y-85685333D01*
X138930000Y-85637714D01*
X139025238Y-85637714D01*
X139739523Y-86256761D02*
X139644285Y-86304380D01*
X139453809Y-86304380D01*
X139358571Y-86256761D01*
X139310952Y-86161523D01*
X139310952Y-85780571D01*
X139358571Y-85685333D01*
X139453809Y-85637714D01*
X139644285Y-85637714D01*
X139739523Y-85685333D01*
X139787142Y-85780571D01*
X139787142Y-85875809D01*
X139310952Y-85971047D01*
X174109238Y-125436380D02*
X174347333Y-126436380D01*
X174537809Y-125722095D01*
X174728285Y-126436380D01*
X174966380Y-125436380D01*
X175347333Y-126436380D02*
X175347333Y-125769714D01*
X175347333Y-125436380D02*
X175299714Y-125484000D01*
X175347333Y-125531619D01*
X175394952Y-125484000D01*
X175347333Y-125436380D01*
X175347333Y-125531619D01*
X175823523Y-126436380D02*
X175823523Y-125769714D01*
X175823523Y-125960190D02*
X175871142Y-125864952D01*
X175918761Y-125817333D01*
X176014000Y-125769714D01*
X176109238Y-125769714D01*
X176823523Y-126388761D02*
X176728285Y-126436380D01*
X176537809Y-126436380D01*
X176442571Y-126388761D01*
X176394952Y-126293523D01*
X176394952Y-125912571D01*
X176442571Y-125817333D01*
X176537809Y-125769714D01*
X176728285Y-125769714D01*
X176823523Y-125817333D01*
X176871142Y-125912571D01*
X176871142Y-126007809D01*
X176394952Y-126103047D01*
X177038190Y-118983238D02*
X177133428Y-118888000D01*
X177323904Y-118792761D01*
X177800095Y-118792761D01*
X177990571Y-118888000D01*
X178085809Y-118983238D01*
X178181047Y-119173714D01*
X178181047Y-119364190D01*
X178085809Y-119649904D01*
X176942952Y-120792761D01*
X178181047Y-120792761D01*
X180085809Y-120792761D02*
X178942952Y-120792761D01*
X179514380Y-120792761D02*
X179514380Y-118792761D01*
X179323904Y-119078476D01*
X179133428Y-119268952D01*
X178942952Y-119364190D01*
X177990571Y-63833428D02*
X177990571Y-65166761D01*
X177514380Y-63071523D02*
X177038190Y-64500095D01*
X178276285Y-64500095D01*
X179419142Y-63166761D02*
X179609619Y-63166761D01*
X179800095Y-63262000D01*
X179895333Y-63357238D01*
X179990571Y-63547714D01*
X180085809Y-63928666D01*
X180085809Y-64404857D01*
X179990571Y-64785809D01*
X179895333Y-64976285D01*
X179800095Y-65071523D01*
X179609619Y-65166761D01*
X179419142Y-65166761D01*
X179228666Y-65071523D01*
X179133428Y-64976285D01*
X179038190Y-64785809D01*
X178942952Y-64404857D01*
X178942952Y-63928666D01*
X179038190Y-63547714D01*
X179133428Y-63357238D01*
X179228666Y-63262000D01*
X179419142Y-63166761D01*
X109982190Y-116189238D02*
X110077428Y-116094000D01*
X110267904Y-115998761D01*
X110744095Y-115998761D01*
X110934571Y-116094000D01*
X111029809Y-116189238D01*
X111125047Y-116379714D01*
X111125047Y-116570190D01*
X111029809Y-116855904D01*
X109886952Y-117998761D01*
X111125047Y-117998761D01*
X112363142Y-115998761D02*
X112553619Y-115998761D01*
X112744095Y-116094000D01*
X112839333Y-116189238D01*
X112934571Y-116379714D01*
X113029809Y-116760666D01*
X113029809Y-117236857D01*
X112934571Y-117617809D01*
X112839333Y-117808285D01*
X112744095Y-117903523D01*
X112553619Y-117998761D01*
X112363142Y-117998761D01*
X112172666Y-117903523D01*
X112077428Y-117808285D01*
X111982190Y-117617809D01*
X111886952Y-117236857D01*
X111886952Y-116760666D01*
X111982190Y-116379714D01*
X112077428Y-116189238D01*
X112172666Y-116094000D01*
X112363142Y-115998761D01*
X107759428Y-64912761D02*
X106616571Y-64912761D01*
X107188000Y-64912761D02*
X107188000Y-62912761D01*
X106997523Y-63198476D01*
X106807047Y-63388952D01*
X106616571Y-63484190D01*
D11*
X141852000Y-111098000D02*
X136612000Y-111098000D01*
X141852000Y-108358000D02*
X136612000Y-108358000D01*
X141852000Y-111098000D02*
X141852000Y-110783000D01*
X141852000Y-108673000D02*
X141852000Y-108358000D01*
X136612000Y-111098000D02*
X136612000Y-110783000D01*
X136612000Y-108673000D02*
X136612000Y-108358000D01*
X170788000Y-62364000D02*
X170788000Y-67604000D01*
X168048000Y-62364000D02*
X168048000Y-67604000D01*
X170788000Y-62364000D02*
X170473000Y-62364000D01*
X168363000Y-62364000D02*
X168048000Y-62364000D01*
X170788000Y-67604000D02*
X170473000Y-67604000D01*
X168363000Y-67604000D02*
X168048000Y-67604000D01*
X112572775Y-123903000D02*
X112072775Y-123903000D01*
X112322775Y-124153000D02*
X112322775Y-123653000D01*
X107372003Y-121368000D02*
G75*
G02*
X112163997Y-121368000I2395997J-1060000D01*
G01*
X107372003Y-123488000D02*
G75*
G03*
X112163997Y-123488000I2395997J1060000D01*
G01*
X119574000Y-98790000D02*
X119574000Y-104250000D01*
X119574000Y-104250000D02*
X170494000Y-104250000D01*
X170494000Y-104250000D02*
X170494000Y-91330000D01*
X170494000Y-91330000D02*
X119574000Y-91330000D01*
X119574000Y-91330000D02*
X119574000Y-96790000D01*
X119574000Y-96790000D02*
G75*
G02*
X119574000Y-98790000I0J-1000000D01*
G01*
X144974000Y-64406000D02*
X144974000Y-66056000D01*
X165414000Y-64406000D02*
X144974000Y-64406000D01*
X165414000Y-69706000D02*
X165414000Y-64406000D01*
X144974000Y-69706000D02*
X165414000Y-69706000D01*
X144974000Y-68056000D02*
X144974000Y-69706000D01*
X144974000Y-66056000D02*
G75*
G02*
X144974000Y-68056000I0J-1000000D01*
G01*
X116670000Y-58544000D02*
X116670000Y-61344000D01*
X116670000Y-61344000D02*
X139870000Y-61344000D01*
X139870000Y-61344000D02*
X139870000Y-58544000D01*
X139870000Y-58544000D02*
X116670000Y-58544000D01*
X119380000Y-58544000D02*
X119380000Y-61344000D01*
X175964000Y-67262000D02*
X172524000Y-67262000D01*
X172524000Y-67262000D02*
X172524000Y-76502000D01*
X172524000Y-76502000D02*
X175964000Y-76502000D01*
X175964000Y-76502000D02*
X175964000Y-67262000D01*
X174244000Y-66572000D02*
X174244000Y-67262000D01*
X174244000Y-77192000D02*
X174244000Y-76502000D01*
X113850000Y-112570000D02*
X117290000Y-112570000D01*
X117290000Y-112570000D02*
X117290000Y-103330000D01*
X117290000Y-103330000D02*
X113850000Y-103330000D01*
X113850000Y-103330000D02*
X113850000Y-112570000D01*
X115570000Y-113260000D02*
X115570000Y-112570000D01*
X115570000Y-102640000D02*
X115570000Y-103330000D01*
X117290000Y-87836000D02*
X113850000Y-87836000D01*
X113850000Y-87836000D02*
X113850000Y-97076000D01*
X113850000Y-97076000D02*
X117290000Y-97076000D01*
X117290000Y-97076000D02*
X117290000Y-87836000D01*
X115570000Y-87146000D02*
X115570000Y-87836000D01*
X115570000Y-97766000D02*
X115570000Y-97076000D01*
X179892000Y-66488000D02*
X177232000Y-66488000D01*
X179892000Y-114808000D02*
X179892000Y-66488000D01*
X177232000Y-114808000D02*
X177232000Y-66488000D01*
X179892000Y-114808000D02*
X177232000Y-114808000D01*
X179892000Y-116078000D02*
X179892000Y-117408000D01*
X179892000Y-117408000D02*
X178562000Y-117408000D01*
X105858000Y-117408000D02*
X108518000Y-117408000D01*
X105858000Y-69088000D02*
X105858000Y-117408000D01*
X108518000Y-69088000D02*
X108518000Y-117408000D01*
X105858000Y-69088000D02*
X108518000Y-69088000D01*
X105858000Y-67818000D02*
X105858000Y-66488000D01*
X105858000Y-66488000D02*
X107188000Y-66488000D01*
X155134000Y-130794000D02*
X155134000Y-132444000D01*
X155134000Y-132444000D02*
X173034000Y-132444000D01*
X173034000Y-132444000D02*
X173034000Y-127144000D01*
X173034000Y-127144000D02*
X155134000Y-127144000D01*
X155134000Y-127144000D02*
X155134000Y-128794000D01*
X155134000Y-128794000D02*
G75*
G02*
X155134000Y-130794000I0J-1000000D01*
G01*
X134814000Y-130794000D02*
X134814000Y-132444000D01*
X134814000Y-132444000D02*
X152714000Y-132444000D01*
X152714000Y-132444000D02*
X152714000Y-127144000D01*
X152714000Y-127144000D02*
X134814000Y-127144000D01*
X134814000Y-127144000D02*
X134814000Y-128794000D01*
X134814000Y-128794000D02*
G75*
G02*
X134814000Y-130794000I0J-1000000D01*
G01*
X114494000Y-130794000D02*
X114494000Y-132444000D01*
X114494000Y-132444000D02*
X132394000Y-132444000D01*
X132394000Y-132444000D02*
X132394000Y-127144000D01*
X132394000Y-127144000D02*
X114494000Y-127144000D01*
X114494000Y-127144000D02*
X114494000Y-128794000D01*
X114494000Y-128794000D02*
G75*
G02*
X114494000Y-130794000I0J-1000000D01*
G01*
X144974000Y-118094000D02*
X144974000Y-119744000D01*
X144974000Y-119744000D02*
X170494000Y-119744000D01*
X170494000Y-119744000D02*
X170494000Y-114444000D01*
X170494000Y-114444000D02*
X144974000Y-114444000D01*
X144974000Y-114444000D02*
X144974000Y-116094000D01*
X144974000Y-116094000D02*
G75*
G02*
X144974000Y-118094000I0J-1000000D01*
G01*
X119574000Y-118094000D02*
X119574000Y-119744000D01*
X119574000Y-119744000D02*
X140014000Y-119744000D01*
X140014000Y-119744000D02*
X140014000Y-114444000D01*
X140014000Y-114444000D02*
X119574000Y-114444000D01*
X119574000Y-114444000D02*
X119574000Y-116094000D01*
X119574000Y-116094000D02*
G75*
G02*
X119574000Y-118094000I0J-1000000D01*
G01*
X144974000Y-80502000D02*
X144974000Y-82152000D01*
X144974000Y-82152000D02*
X170494000Y-82152000D01*
X170494000Y-82152000D02*
X170494000Y-76852000D01*
X170494000Y-76852000D02*
X144974000Y-76852000D01*
X144974000Y-76852000D02*
X144974000Y-78502000D01*
X144974000Y-78502000D02*
G75*
G02*
X144974000Y-80502000I0J-1000000D01*
G01*
X114240000Y-80502000D02*
X114240000Y-82152000D01*
X114240000Y-82152000D02*
X139760000Y-82152000D01*
X139760000Y-82152000D02*
X139760000Y-76852000D01*
X139760000Y-76852000D02*
X114240000Y-76852000D01*
X114240000Y-76852000D02*
X114240000Y-78502000D01*
X114240000Y-78502000D02*
G75*
G02*
X114240000Y-80502000I0J-1000000D01*
G01*
X114240000Y-68056000D02*
X114240000Y-69706000D01*
X114240000Y-69706000D02*
X139760000Y-69706000D01*
X139760000Y-69706000D02*
X139760000Y-64406000D01*
X139760000Y-64406000D02*
X114240000Y-64406000D01*
X114240000Y-64406000D02*
X114240000Y-66056000D01*
X114240000Y-66056000D02*
G75*
G02*
X114240000Y-68056000I0J-1000000D01*
G01*
D10*
X144359333Y-110085142D02*
X144311714Y-110132761D01*
X144168857Y-110180380D01*
X144073619Y-110180380D01*
X143930761Y-110132761D01*
X143835523Y-110037523D01*
X143787904Y-109942285D01*
X143740285Y-109751809D01*
X143740285Y-109608952D01*
X143787904Y-109418476D01*
X143835523Y-109323238D01*
X143930761Y-109228000D01*
X144073619Y-109180380D01*
X144168857Y-109180380D01*
X144311714Y-109228000D01*
X144359333Y-109275619D01*
X144692666Y-109180380D02*
X145311714Y-109180380D01*
X144978380Y-109561333D01*
X145121238Y-109561333D01*
X145216476Y-109608952D01*
X145264095Y-109656571D01*
X145311714Y-109751809D01*
X145311714Y-109989904D01*
X145264095Y-110085142D01*
X145216476Y-110132761D01*
X145121238Y-110180380D01*
X144835523Y-110180380D01*
X144740285Y-110132761D01*
X144692666Y-110085142D01*
X138715809Y-109831142D02*
X138763428Y-109878761D01*
X138715809Y-109926380D01*
X138668190Y-109878761D01*
X138715809Y-109831142D01*
X138715809Y-109926380D01*
X139715809Y-109926380D02*
X139144380Y-109926380D01*
X139430095Y-109926380D02*
X139430095Y-108926380D01*
X139334857Y-109069238D01*
X139239619Y-109164476D01*
X139144380Y-109212095D01*
X169775142Y-70270666D02*
X169822761Y-70318285D01*
X169870380Y-70461142D01*
X169870380Y-70556380D01*
X169822761Y-70699238D01*
X169727523Y-70794476D01*
X169632285Y-70842095D01*
X169441809Y-70889714D01*
X169298952Y-70889714D01*
X169108476Y-70842095D01*
X169013238Y-70794476D01*
X168918000Y-70699238D01*
X168870380Y-70556380D01*
X168870380Y-70461142D01*
X168918000Y-70318285D01*
X168965619Y-70270666D01*
X168965619Y-69889714D02*
X168918000Y-69842095D01*
X168870380Y-69746857D01*
X168870380Y-69508761D01*
X168918000Y-69413523D01*
X168965619Y-69365904D01*
X169060857Y-69318285D01*
X169156095Y-69318285D01*
X169298952Y-69365904D01*
X169870380Y-69937333D01*
X169870380Y-69318285D01*
X169775142Y-65246190D02*
X169822761Y-65198571D01*
X169870380Y-65246190D01*
X169822761Y-65293809D01*
X169775142Y-65246190D01*
X169870380Y-65246190D01*
X169870380Y-64246190D02*
X169870380Y-64817619D01*
X169870380Y-64531904D02*
X168870380Y-64531904D01*
X169013238Y-64627142D01*
X169108476Y-64722380D01*
X169156095Y-64817619D01*
X109561333Y-127865142D02*
X109513714Y-127912761D01*
X109370857Y-127960380D01*
X109275619Y-127960380D01*
X109132761Y-127912761D01*
X109037523Y-127817523D01*
X108989904Y-127722285D01*
X108942285Y-127531809D01*
X108942285Y-127388952D01*
X108989904Y-127198476D01*
X109037523Y-127103238D01*
X109132761Y-127008000D01*
X109275619Y-126960380D01*
X109370857Y-126960380D01*
X109513714Y-127008000D01*
X109561333Y-127055619D01*
X110513714Y-127960380D02*
X109942285Y-127960380D01*
X110228000Y-127960380D02*
X110228000Y-126960380D01*
X110132761Y-127103238D01*
X110037523Y-127198476D01*
X109942285Y-127246095D01*
X105823047Y-129071714D02*
X105823047Y-129738380D01*
X105584952Y-128690761D02*
X105346857Y-129405047D01*
X105965904Y-129405047D01*
X106346857Y-129643142D02*
X106394476Y-129690761D01*
X106346857Y-129738380D01*
X106299238Y-129690761D01*
X106346857Y-129643142D01*
X106346857Y-129738380D01*
X106727809Y-128738380D02*
X107394476Y-128738380D01*
X106965904Y-129738380D01*
X108489714Y-128690761D02*
X107632571Y-129976476D01*
X108775428Y-128833619D02*
X108823047Y-128786000D01*
X108918285Y-128738380D01*
X109156380Y-128738380D01*
X109251619Y-128786000D01*
X109299238Y-128833619D01*
X109346857Y-128928857D01*
X109346857Y-129024095D01*
X109299238Y-129166952D01*
X108727809Y-129738380D01*
X109346857Y-129738380D01*
X110251619Y-128738380D02*
X109775428Y-128738380D01*
X109727809Y-129214571D01*
X109775428Y-129166952D01*
X109870666Y-129119333D01*
X110108761Y-129119333D01*
X110204000Y-129166952D01*
X110251619Y-129214571D01*
X110299238Y-129309809D01*
X110299238Y-129547904D01*
X110251619Y-129643142D01*
X110204000Y-129690761D01*
X110108761Y-129738380D01*
X109870666Y-129738380D01*
X109775428Y-129690761D01*
X109727809Y-129643142D01*
X110632571Y-129071714D02*
X110870666Y-129738380D01*
X111108761Y-129071714D01*
X119026380Y-98766190D02*
X118026380Y-98766190D01*
X118931142Y-97718571D02*
X118978761Y-97766190D01*
X119026380Y-97909047D01*
X119026380Y-98004285D01*
X118978761Y-98147142D01*
X118883523Y-98242380D01*
X118788285Y-98290000D01*
X118597809Y-98337619D01*
X118454952Y-98337619D01*
X118264476Y-98290000D01*
X118169238Y-98242380D01*
X118074000Y-98147142D01*
X118026380Y-98004285D01*
X118026380Y-97909047D01*
X118074000Y-97766190D01*
X118121619Y-97718571D01*
X118026380Y-96813809D02*
X118026380Y-97290000D01*
X118502571Y-97337619D01*
X118454952Y-97290000D01*
X118407333Y-97194761D01*
X118407333Y-96956666D01*
X118454952Y-96861428D01*
X118502571Y-96813809D01*
X118597809Y-96766190D01*
X118835904Y-96766190D01*
X118931142Y-96813809D01*
X118978761Y-96861428D01*
X119026380Y-96956666D01*
X119026380Y-97194761D01*
X118978761Y-97290000D01*
X118931142Y-97337619D01*
X143795904Y-96988380D02*
X143605428Y-96988380D01*
X143510190Y-97036000D01*
X143462571Y-97083619D01*
X143367333Y-97226476D01*
X143319714Y-97416952D01*
X143319714Y-97797904D01*
X143367333Y-97893142D01*
X143414952Y-97940761D01*
X143510190Y-97988380D01*
X143700666Y-97988380D01*
X143795904Y-97940761D01*
X143843523Y-97893142D01*
X143891142Y-97797904D01*
X143891142Y-97559809D01*
X143843523Y-97464571D01*
X143795904Y-97416952D01*
X143700666Y-97369333D01*
X143510190Y-97369333D01*
X143414952Y-97416952D01*
X143367333Y-97464571D01*
X143319714Y-97559809D01*
X144795904Y-96988380D02*
X144319714Y-96988380D01*
X144272095Y-97464571D01*
X144319714Y-97416952D01*
X144414952Y-97369333D01*
X144653047Y-97369333D01*
X144748285Y-97416952D01*
X144795904Y-97464571D01*
X144843523Y-97559809D01*
X144843523Y-97797904D01*
X144795904Y-97893142D01*
X144748285Y-97940761D01*
X144653047Y-97988380D01*
X144414952Y-97988380D01*
X144319714Y-97940761D01*
X144272095Y-97893142D01*
X145462571Y-96988380D02*
X145557809Y-96988380D01*
X145653047Y-97036000D01*
X145700666Y-97083619D01*
X145748285Y-97178857D01*
X145795904Y-97369333D01*
X145795904Y-97607428D01*
X145748285Y-97797904D01*
X145700666Y-97893142D01*
X145653047Y-97940761D01*
X145557809Y-97988380D01*
X145462571Y-97988380D01*
X145367333Y-97940761D01*
X145319714Y-97893142D01*
X145272095Y-97797904D01*
X145224476Y-97607428D01*
X145224476Y-97369333D01*
X145272095Y-97178857D01*
X145319714Y-97083619D01*
X145367333Y-97036000D01*
X145462571Y-96988380D01*
X146176857Y-97083619D02*
X146224476Y-97036000D01*
X146319714Y-96988380D01*
X146557809Y-96988380D01*
X146653047Y-97036000D01*
X146700666Y-97083619D01*
X146748285Y-97178857D01*
X146748285Y-97274095D01*
X146700666Y-97416952D01*
X146129238Y-97988380D01*
X146748285Y-97988380D01*
X144426380Y-68032190D02*
X143426380Y-68032190D01*
X144331142Y-66984571D02*
X144378761Y-67032190D01*
X144426380Y-67175047D01*
X144426380Y-67270285D01*
X144378761Y-67413142D01*
X144283523Y-67508380D01*
X144188285Y-67556000D01*
X143997809Y-67603619D01*
X143854952Y-67603619D01*
X143664476Y-67556000D01*
X143569238Y-67508380D01*
X143474000Y-67413142D01*
X143426380Y-67270285D01*
X143426380Y-67175047D01*
X143474000Y-67032190D01*
X143521619Y-66984571D01*
X143521619Y-66603619D02*
X143474000Y-66556000D01*
X143426380Y-66460761D01*
X143426380Y-66222666D01*
X143474000Y-66127428D01*
X143521619Y-66079809D01*
X143616857Y-66032190D01*
X143712095Y-66032190D01*
X143854952Y-66079809D01*
X144426380Y-66651238D01*
X144426380Y-66032190D01*
X152582952Y-66508380D02*
X153249619Y-66508380D01*
X152821047Y-67508380D01*
X154059142Y-66841714D02*
X154059142Y-67508380D01*
X153821047Y-66460761D02*
X153582952Y-67175047D01*
X154202000Y-67175047D01*
X155059142Y-67508380D02*
X154582952Y-67508380D01*
X154582952Y-66508380D01*
X155344857Y-67460761D02*
X155487714Y-67508380D01*
X155725809Y-67508380D01*
X155821047Y-67460761D01*
X155868666Y-67413142D01*
X155916285Y-67317904D01*
X155916285Y-67222666D01*
X155868666Y-67127428D01*
X155821047Y-67079809D01*
X155725809Y-67032190D01*
X155535333Y-66984571D01*
X155440095Y-66936952D01*
X155392476Y-66889333D01*
X155344857Y-66794095D01*
X155344857Y-66698857D01*
X155392476Y-66603619D01*
X155440095Y-66556000D01*
X155535333Y-66508380D01*
X155773428Y-66508380D01*
X155916285Y-66556000D01*
X156249619Y-66508380D02*
X156868666Y-66508380D01*
X156535333Y-66889333D01*
X156678190Y-66889333D01*
X156773428Y-66936952D01*
X156821047Y-66984571D01*
X156868666Y-67079809D01*
X156868666Y-67317904D01*
X156821047Y-67413142D01*
X156773428Y-67460761D01*
X156678190Y-67508380D01*
X156392476Y-67508380D01*
X156297238Y-67460761D01*
X156249619Y-67413142D01*
X157725809Y-66508380D02*
X157535333Y-66508380D01*
X157440095Y-66556000D01*
X157392476Y-66603619D01*
X157297238Y-66746476D01*
X157249619Y-66936952D01*
X157249619Y-67317904D01*
X157297238Y-67413142D01*
X157344857Y-67460761D01*
X157440095Y-67508380D01*
X157630571Y-67508380D01*
X157725809Y-67460761D01*
X157773428Y-67413142D01*
X157821047Y-67317904D01*
X157821047Y-67079809D01*
X157773428Y-66984571D01*
X157725809Y-66936952D01*
X157630571Y-66889333D01*
X157440095Y-66889333D01*
X157344857Y-66936952D01*
X157297238Y-66984571D01*
X157249619Y-67079809D01*
X158392476Y-66936952D02*
X158297238Y-66889333D01*
X158249619Y-66841714D01*
X158202000Y-66746476D01*
X158202000Y-66698857D01*
X158249619Y-66603619D01*
X158297238Y-66556000D01*
X158392476Y-66508380D01*
X158582952Y-66508380D01*
X158678190Y-66556000D01*
X158725809Y-66603619D01*
X158773428Y-66698857D01*
X158773428Y-66746476D01*
X158725809Y-66841714D01*
X158678190Y-66889333D01*
X158582952Y-66936952D01*
X158392476Y-66936952D01*
X158297238Y-66984571D01*
X158249619Y-67032190D01*
X158202000Y-67127428D01*
X158202000Y-67317904D01*
X158249619Y-67413142D01*
X158297238Y-67460761D01*
X158392476Y-67508380D01*
X158582952Y-67508380D01*
X158678190Y-67460761D01*
X158725809Y-67413142D01*
X158773428Y-67317904D01*
X158773428Y-67127428D01*
X158725809Y-67032190D01*
X158678190Y-66984571D01*
X158582952Y-66936952D01*
X126563523Y-57856380D02*
X126230190Y-57380190D01*
X125992095Y-57856380D02*
X125992095Y-56856380D01*
X126373047Y-56856380D01*
X126468285Y-56904000D01*
X126515904Y-56951619D01*
X126563523Y-57046857D01*
X126563523Y-57189714D01*
X126515904Y-57284952D01*
X126468285Y-57332571D01*
X126373047Y-57380190D01*
X125992095Y-57380190D01*
X126992095Y-57856380D02*
X126992095Y-56856380D01*
X127563523Y-57856380D01*
X127563523Y-56856380D01*
X128563523Y-57856380D02*
X127992095Y-57856380D01*
X128277809Y-57856380D02*
X128277809Y-56856380D01*
X128182571Y-56999238D01*
X128087333Y-57094476D01*
X127992095Y-57142095D01*
X132214952Y-57856380D02*
X131643523Y-57856380D01*
X131929238Y-57856380D02*
X131929238Y-56856380D01*
X131834000Y-56999238D01*
X131738761Y-57094476D01*
X131643523Y-57142095D01*
X132643523Y-57856380D02*
X132643523Y-56856380D01*
X132738761Y-57475428D02*
X133024476Y-57856380D01*
X133024476Y-57189714D02*
X132643523Y-57570666D01*
X174696380Y-62904666D02*
X174220190Y-63238000D01*
X174696380Y-63476095D02*
X173696380Y-63476095D01*
X173696380Y-63095142D01*
X173744000Y-62999904D01*
X173791619Y-62952285D01*
X173886857Y-62904666D01*
X174029714Y-62904666D01*
X174124952Y-62952285D01*
X174172571Y-62999904D01*
X174220190Y-63095142D01*
X174220190Y-63476095D01*
X173696380Y-62571333D02*
X173696380Y-61952285D01*
X174077333Y-62285619D01*
X174077333Y-62142761D01*
X174124952Y-62047523D01*
X174172571Y-61999904D01*
X174267809Y-61952285D01*
X174505904Y-61952285D01*
X174601142Y-61999904D01*
X174648761Y-62047523D01*
X174696380Y-62142761D01*
X174696380Y-62428476D01*
X174648761Y-62523714D01*
X174601142Y-62571333D01*
X174696380Y-71842285D02*
X174696380Y-72413714D01*
X174696380Y-72128000D02*
X173696380Y-72128000D01*
X173839238Y-72223238D01*
X173934476Y-72318476D01*
X173982095Y-72413714D01*
X174696380Y-71413714D02*
X173696380Y-71413714D01*
X174696380Y-70842285D02*
X174124952Y-71270857D01*
X173696380Y-70842285D02*
X174267809Y-71413714D01*
X113302380Y-108116666D02*
X112826190Y-108450000D01*
X113302380Y-108688095D02*
X112302380Y-108688095D01*
X112302380Y-108307142D01*
X112350000Y-108211904D01*
X112397619Y-108164285D01*
X112492857Y-108116666D01*
X112635714Y-108116666D01*
X112730952Y-108164285D01*
X112778571Y-108211904D01*
X112826190Y-108307142D01*
X112826190Y-108688095D01*
X112397619Y-107735714D02*
X112350000Y-107688095D01*
X112302380Y-107592857D01*
X112302380Y-107354761D01*
X112350000Y-107259523D01*
X112397619Y-107211904D01*
X112492857Y-107164285D01*
X112588095Y-107164285D01*
X112730952Y-107211904D01*
X113302380Y-107783333D01*
X113302380Y-107164285D01*
X116022380Y-108164285D02*
X116022380Y-108735714D01*
X116022380Y-108450000D02*
X115022380Y-108450000D01*
X115165238Y-108545238D01*
X115260476Y-108640476D01*
X115308095Y-108735714D01*
X116022380Y-107735714D02*
X115022380Y-107735714D01*
X116022380Y-107164285D02*
X115450952Y-107592857D01*
X115022380Y-107164285D02*
X115593809Y-107735714D01*
X113228380Y-92622666D02*
X112752190Y-92956000D01*
X113228380Y-93194095D02*
X112228380Y-93194095D01*
X112228380Y-92813142D01*
X112276000Y-92717904D01*
X112323619Y-92670285D01*
X112418857Y-92622666D01*
X112561714Y-92622666D01*
X112656952Y-92670285D01*
X112704571Y-92717904D01*
X112752190Y-92813142D01*
X112752190Y-93194095D01*
X113228380Y-91670285D02*
X113228380Y-92241714D01*
X113228380Y-91956000D02*
X112228380Y-91956000D01*
X112371238Y-92051238D01*
X112466476Y-92146476D01*
X112514095Y-92241714D01*
X116022380Y-92670285D02*
X116022380Y-93241714D01*
X116022380Y-92956000D02*
X115022380Y-92956000D01*
X115165238Y-93051238D01*
X115260476Y-93146476D01*
X115308095Y-93241714D01*
X116022380Y-92241714D02*
X115022380Y-92241714D01*
X116022380Y-91670285D02*
X115450952Y-92098857D01*
X115022380Y-91670285D02*
X115593809Y-92241714D01*
X154586380Y-131246380D02*
X153586380Y-131246380D01*
X154491142Y-130198761D02*
X154538761Y-130246380D01*
X154586380Y-130389238D01*
X154586380Y-130484476D01*
X154538761Y-130627333D01*
X154443523Y-130722571D01*
X154348285Y-130770190D01*
X154157809Y-130817809D01*
X154014952Y-130817809D01*
X153824476Y-130770190D01*
X153729238Y-130722571D01*
X153634000Y-130627333D01*
X153586380Y-130484476D01*
X153586380Y-130389238D01*
X153634000Y-130246380D01*
X153681619Y-130198761D01*
X154586380Y-129246380D02*
X154586380Y-129817809D01*
X154586380Y-129532095D02*
X153586380Y-129532095D01*
X153729238Y-129627333D01*
X153824476Y-129722571D01*
X153872095Y-129817809D01*
X153586380Y-128627333D02*
X153586380Y-128532095D01*
X153634000Y-128436857D01*
X153681619Y-128389238D01*
X153776857Y-128341619D01*
X153967333Y-128294000D01*
X154205428Y-128294000D01*
X154395904Y-128341619D01*
X154491142Y-128389238D01*
X154538761Y-128436857D01*
X154586380Y-128532095D01*
X154586380Y-128627333D01*
X154538761Y-128722571D01*
X154491142Y-128770190D01*
X154395904Y-128817809D01*
X154205428Y-128865428D01*
X153967333Y-128865428D01*
X153776857Y-128817809D01*
X153681619Y-128770190D01*
X153634000Y-128722571D01*
X153586380Y-128627333D01*
X161695142Y-129246380D02*
X162361809Y-129246380D01*
X161933238Y-130246380D01*
X163171333Y-129579714D02*
X163171333Y-130246380D01*
X162933238Y-129198761D02*
X162695142Y-129913047D01*
X163314190Y-129913047D01*
X164171333Y-130246380D02*
X163695142Y-130246380D01*
X163695142Y-129246380D01*
X164457047Y-130198761D02*
X164599904Y-130246380D01*
X164838000Y-130246380D01*
X164933238Y-130198761D01*
X164980857Y-130151142D01*
X165028476Y-130055904D01*
X165028476Y-129960666D01*
X164980857Y-129865428D01*
X164933238Y-129817809D01*
X164838000Y-129770190D01*
X164647523Y-129722571D01*
X164552285Y-129674952D01*
X164504666Y-129627333D01*
X164457047Y-129532095D01*
X164457047Y-129436857D01*
X164504666Y-129341619D01*
X164552285Y-129294000D01*
X164647523Y-129246380D01*
X164885619Y-129246380D01*
X165028476Y-129294000D01*
X165361809Y-129246380D02*
X166028476Y-129246380D01*
X165599904Y-130246380D01*
X166838000Y-129579714D02*
X166838000Y-130246380D01*
X166599904Y-129198761D02*
X166361809Y-129913047D01*
X166980857Y-129913047D01*
X134266380Y-130770190D02*
X133266380Y-130770190D01*
X134171142Y-129722571D02*
X134218761Y-129770190D01*
X134266380Y-129913047D01*
X134266380Y-130008285D01*
X134218761Y-130151142D01*
X134123523Y-130246380D01*
X134028285Y-130294000D01*
X133837809Y-130341619D01*
X133694952Y-130341619D01*
X133504476Y-130294000D01*
X133409238Y-130246380D01*
X133314000Y-130151142D01*
X133266380Y-130008285D01*
X133266380Y-129913047D01*
X133314000Y-129770190D01*
X133361619Y-129722571D01*
X134266380Y-129246380D02*
X134266380Y-129055904D01*
X134218761Y-128960666D01*
X134171142Y-128913047D01*
X134028285Y-128817809D01*
X133837809Y-128770190D01*
X133456857Y-128770190D01*
X133361619Y-128817809D01*
X133314000Y-128865428D01*
X133266380Y-128960666D01*
X133266380Y-129151142D01*
X133314000Y-129246380D01*
X133361619Y-129294000D01*
X133456857Y-129341619D01*
X133694952Y-129341619D01*
X133790190Y-129294000D01*
X133837809Y-129246380D01*
X133885428Y-129151142D01*
X133885428Y-128960666D01*
X133837809Y-128865428D01*
X133790190Y-128817809D01*
X133694952Y-128770190D01*
X141375142Y-129246380D02*
X142041809Y-129246380D01*
X141613238Y-130246380D01*
X142851333Y-129579714D02*
X142851333Y-130246380D01*
X142613238Y-129198761D02*
X142375142Y-129913047D01*
X142994190Y-129913047D01*
X143851333Y-130246380D02*
X143375142Y-130246380D01*
X143375142Y-129246380D01*
X144137047Y-130198761D02*
X144279904Y-130246380D01*
X144518000Y-130246380D01*
X144613238Y-130198761D01*
X144660857Y-130151142D01*
X144708476Y-130055904D01*
X144708476Y-129960666D01*
X144660857Y-129865428D01*
X144613238Y-129817809D01*
X144518000Y-129770190D01*
X144327523Y-129722571D01*
X144232285Y-129674952D01*
X144184666Y-129627333D01*
X144137047Y-129532095D01*
X144137047Y-129436857D01*
X144184666Y-129341619D01*
X144232285Y-129294000D01*
X144327523Y-129246380D01*
X144565619Y-129246380D01*
X144708476Y-129294000D01*
X145327523Y-129246380D02*
X145422761Y-129246380D01*
X145518000Y-129294000D01*
X145565619Y-129341619D01*
X145613238Y-129436857D01*
X145660857Y-129627333D01*
X145660857Y-129865428D01*
X145613238Y-130055904D01*
X145565619Y-130151142D01*
X145518000Y-130198761D01*
X145422761Y-130246380D01*
X145327523Y-130246380D01*
X145232285Y-130198761D01*
X145184666Y-130151142D01*
X145137047Y-130055904D01*
X145089428Y-129865428D01*
X145089428Y-129627333D01*
X145137047Y-129436857D01*
X145184666Y-129341619D01*
X145232285Y-129294000D01*
X145327523Y-129246380D01*
X146279904Y-129246380D02*
X146375142Y-129246380D01*
X146470380Y-129294000D01*
X146518000Y-129341619D01*
X146565619Y-129436857D01*
X146613238Y-129627333D01*
X146613238Y-129865428D01*
X146565619Y-130055904D01*
X146518000Y-130151142D01*
X146470380Y-130198761D01*
X146375142Y-130246380D01*
X146279904Y-130246380D01*
X146184666Y-130198761D01*
X146137047Y-130151142D01*
X146089428Y-130055904D01*
X146041809Y-129865428D01*
X146041809Y-129627333D01*
X146089428Y-129436857D01*
X146137047Y-129341619D01*
X146184666Y-129294000D01*
X146279904Y-129246380D01*
X113946380Y-130770190D02*
X112946380Y-130770190D01*
X113851142Y-129722571D02*
X113898761Y-129770190D01*
X113946380Y-129913047D01*
X113946380Y-130008285D01*
X113898761Y-130151142D01*
X113803523Y-130246380D01*
X113708285Y-130294000D01*
X113517809Y-130341619D01*
X113374952Y-130341619D01*
X113184476Y-130294000D01*
X113089238Y-130246380D01*
X112994000Y-130151142D01*
X112946380Y-130008285D01*
X112946380Y-129913047D01*
X112994000Y-129770190D01*
X113041619Y-129722571D01*
X113374952Y-129151142D02*
X113327333Y-129246380D01*
X113279714Y-129294000D01*
X113184476Y-129341619D01*
X113136857Y-129341619D01*
X113041619Y-129294000D01*
X112994000Y-129246380D01*
X112946380Y-129151142D01*
X112946380Y-128960666D01*
X112994000Y-128865428D01*
X113041619Y-128817809D01*
X113136857Y-128770190D01*
X113184476Y-128770190D01*
X113279714Y-128817809D01*
X113327333Y-128865428D01*
X113374952Y-128960666D01*
X113374952Y-129151142D01*
X113422571Y-129246380D01*
X113470190Y-129294000D01*
X113565428Y-129341619D01*
X113755904Y-129341619D01*
X113851142Y-129294000D01*
X113898761Y-129246380D01*
X113946380Y-129151142D01*
X113946380Y-128960666D01*
X113898761Y-128865428D01*
X113851142Y-128817809D01*
X113755904Y-128770190D01*
X113565428Y-128770190D01*
X113470190Y-128817809D01*
X113422571Y-128865428D01*
X113374952Y-128960666D01*
X121055142Y-129246380D02*
X121721809Y-129246380D01*
X121293238Y-130246380D01*
X122531333Y-129579714D02*
X122531333Y-130246380D01*
X122293238Y-129198761D02*
X122055142Y-129913047D01*
X122674190Y-129913047D01*
X123531333Y-130246380D02*
X123055142Y-130246380D01*
X123055142Y-129246380D01*
X123817047Y-130198761D02*
X123959904Y-130246380D01*
X124198000Y-130246380D01*
X124293238Y-130198761D01*
X124340857Y-130151142D01*
X124388476Y-130055904D01*
X124388476Y-129960666D01*
X124340857Y-129865428D01*
X124293238Y-129817809D01*
X124198000Y-129770190D01*
X124007523Y-129722571D01*
X123912285Y-129674952D01*
X123864666Y-129627333D01*
X123817047Y-129532095D01*
X123817047Y-129436857D01*
X123864666Y-129341619D01*
X123912285Y-129294000D01*
X124007523Y-129246380D01*
X124245619Y-129246380D01*
X124388476Y-129294000D01*
X125340857Y-130246380D02*
X124769428Y-130246380D01*
X125055142Y-130246380D02*
X125055142Y-129246380D01*
X124959904Y-129389238D01*
X124864666Y-129484476D01*
X124769428Y-129532095D01*
X125959904Y-129246380D02*
X126055142Y-129246380D01*
X126150380Y-129294000D01*
X126198000Y-129341619D01*
X126245619Y-129436857D01*
X126293238Y-129627333D01*
X126293238Y-129865428D01*
X126245619Y-130055904D01*
X126198000Y-130151142D01*
X126150380Y-130198761D01*
X126055142Y-130246380D01*
X125959904Y-130246380D01*
X125864666Y-130198761D01*
X125817047Y-130151142D01*
X125769428Y-130055904D01*
X125721809Y-129865428D01*
X125721809Y-129627333D01*
X125769428Y-129436857D01*
X125817047Y-129341619D01*
X125864666Y-129294000D01*
X125959904Y-129246380D01*
X144426380Y-118070190D02*
X143426380Y-118070190D01*
X144331142Y-117022571D02*
X144378761Y-117070190D01*
X144426380Y-117213047D01*
X144426380Y-117308285D01*
X144378761Y-117451142D01*
X144283523Y-117546380D01*
X144188285Y-117594000D01*
X143997809Y-117641619D01*
X143854952Y-117641619D01*
X143664476Y-117594000D01*
X143569238Y-117546380D01*
X143474000Y-117451142D01*
X143426380Y-117308285D01*
X143426380Y-117213047D01*
X143474000Y-117070190D01*
X143521619Y-117022571D01*
X143426380Y-116689238D02*
X143426380Y-116022571D01*
X144426380Y-116451142D01*
X154868952Y-116546380D02*
X155535619Y-116546380D01*
X155107047Y-117546380D01*
X156345142Y-116879714D02*
X156345142Y-117546380D01*
X156107047Y-116498761D02*
X155868952Y-117213047D01*
X156488000Y-117213047D01*
X157345142Y-117546380D02*
X156868952Y-117546380D01*
X156868952Y-116546380D01*
X157630857Y-117498761D02*
X157773714Y-117546380D01*
X158011809Y-117546380D01*
X158107047Y-117498761D01*
X158154666Y-117451142D01*
X158202285Y-117355904D01*
X158202285Y-117260666D01*
X158154666Y-117165428D01*
X158107047Y-117117809D01*
X158011809Y-117070190D01*
X157821333Y-117022571D01*
X157726095Y-116974952D01*
X157678476Y-116927333D01*
X157630857Y-116832095D01*
X157630857Y-116736857D01*
X157678476Y-116641619D01*
X157726095Y-116594000D01*
X157821333Y-116546380D01*
X158059428Y-116546380D01*
X158202285Y-116594000D01*
X158583238Y-116641619D02*
X158630857Y-116594000D01*
X158726095Y-116546380D01*
X158964190Y-116546380D01*
X159059428Y-116594000D01*
X159107047Y-116641619D01*
X159154666Y-116736857D01*
X159154666Y-116832095D01*
X159107047Y-116974952D01*
X158535619Y-117546380D01*
X159154666Y-117546380D01*
X160011809Y-116879714D02*
X160011809Y-117546380D01*
X159773714Y-116498761D02*
X159535619Y-117213047D01*
X160154666Y-117213047D01*
X160964190Y-116879714D02*
X160964190Y-117546380D01*
X160726095Y-116498761D02*
X160488000Y-117213047D01*
X161107047Y-117213047D01*
X119026380Y-118070190D02*
X118026380Y-118070190D01*
X118931142Y-117022571D02*
X118978761Y-117070190D01*
X119026380Y-117213047D01*
X119026380Y-117308285D01*
X118978761Y-117451142D01*
X118883523Y-117546380D01*
X118788285Y-117594000D01*
X118597809Y-117641619D01*
X118454952Y-117641619D01*
X118264476Y-117594000D01*
X118169238Y-117546380D01*
X118074000Y-117451142D01*
X118026380Y-117308285D01*
X118026380Y-117213047D01*
X118074000Y-117070190D01*
X118121619Y-117022571D01*
X118026380Y-116165428D02*
X118026380Y-116355904D01*
X118074000Y-116451142D01*
X118121619Y-116498761D01*
X118264476Y-116594000D01*
X118454952Y-116641619D01*
X118835904Y-116641619D01*
X118931142Y-116594000D01*
X118978761Y-116546380D01*
X119026380Y-116451142D01*
X119026380Y-116260666D01*
X118978761Y-116165428D01*
X118931142Y-116117809D01*
X118835904Y-116070190D01*
X118597809Y-116070190D01*
X118502571Y-116117809D01*
X118454952Y-116165428D01*
X118407333Y-116260666D01*
X118407333Y-116451142D01*
X118454952Y-116546380D01*
X118502571Y-116594000D01*
X118597809Y-116641619D01*
X127182952Y-116546380D02*
X127849619Y-116546380D01*
X127421047Y-117546380D01*
X128659142Y-116879714D02*
X128659142Y-117546380D01*
X128421047Y-116498761D02*
X128182952Y-117213047D01*
X128802000Y-117213047D01*
X129659142Y-117546380D02*
X129182952Y-117546380D01*
X129182952Y-116546380D01*
X129944857Y-117498761D02*
X130087714Y-117546380D01*
X130325809Y-117546380D01*
X130421047Y-117498761D01*
X130468666Y-117451142D01*
X130516285Y-117355904D01*
X130516285Y-117260666D01*
X130468666Y-117165428D01*
X130421047Y-117117809D01*
X130325809Y-117070190D01*
X130135333Y-117022571D01*
X130040095Y-116974952D01*
X129992476Y-116927333D01*
X129944857Y-116832095D01*
X129944857Y-116736857D01*
X129992476Y-116641619D01*
X130040095Y-116594000D01*
X130135333Y-116546380D01*
X130373428Y-116546380D01*
X130516285Y-116594000D01*
X130849619Y-116546380D02*
X131468666Y-116546380D01*
X131135333Y-116927333D01*
X131278190Y-116927333D01*
X131373428Y-116974952D01*
X131421047Y-117022571D01*
X131468666Y-117117809D01*
X131468666Y-117355904D01*
X131421047Y-117451142D01*
X131373428Y-117498761D01*
X131278190Y-117546380D01*
X130992476Y-117546380D01*
X130897238Y-117498761D01*
X130849619Y-117451142D01*
X132325809Y-116546380D02*
X132135333Y-116546380D01*
X132040095Y-116594000D01*
X131992476Y-116641619D01*
X131897238Y-116784476D01*
X131849619Y-116974952D01*
X131849619Y-117355904D01*
X131897238Y-117451142D01*
X131944857Y-117498761D01*
X132040095Y-117546380D01*
X132230571Y-117546380D01*
X132325809Y-117498761D01*
X132373428Y-117451142D01*
X132421047Y-117355904D01*
X132421047Y-117117809D01*
X132373428Y-117022571D01*
X132325809Y-116974952D01*
X132230571Y-116927333D01*
X132040095Y-116927333D01*
X131944857Y-116974952D01*
X131897238Y-117022571D01*
X131849619Y-117117809D01*
X132754380Y-116546380D02*
X133421047Y-116546380D01*
X132992476Y-117546380D01*
X144426380Y-80478190D02*
X143426380Y-80478190D01*
X144331142Y-79430571D02*
X144378761Y-79478190D01*
X144426380Y-79621047D01*
X144426380Y-79716285D01*
X144378761Y-79859142D01*
X144283523Y-79954380D01*
X144188285Y-80002000D01*
X143997809Y-80049619D01*
X143854952Y-80049619D01*
X143664476Y-80002000D01*
X143569238Y-79954380D01*
X143474000Y-79859142D01*
X143426380Y-79716285D01*
X143426380Y-79621047D01*
X143474000Y-79478190D01*
X143521619Y-79430571D01*
X143759714Y-78573428D02*
X144426380Y-78573428D01*
X143378761Y-78811523D02*
X144093047Y-79049619D01*
X144093047Y-78430571D01*
X154868952Y-78954380D02*
X155535619Y-78954380D01*
X155107047Y-79954380D01*
X156345142Y-79287714D02*
X156345142Y-79954380D01*
X156107047Y-78906761D02*
X155868952Y-79621047D01*
X156488000Y-79621047D01*
X157345142Y-79954380D02*
X156868952Y-79954380D01*
X156868952Y-78954380D01*
X157630857Y-79906761D02*
X157773714Y-79954380D01*
X158011809Y-79954380D01*
X158107047Y-79906761D01*
X158154666Y-79859142D01*
X158202285Y-79763904D01*
X158202285Y-79668666D01*
X158154666Y-79573428D01*
X158107047Y-79525809D01*
X158011809Y-79478190D01*
X157821333Y-79430571D01*
X157726095Y-79382952D01*
X157678476Y-79335333D01*
X157630857Y-79240095D01*
X157630857Y-79144857D01*
X157678476Y-79049619D01*
X157726095Y-79002000D01*
X157821333Y-78954380D01*
X158059428Y-78954380D01*
X158202285Y-79002000D01*
X158583238Y-79049619D02*
X158630857Y-79002000D01*
X158726095Y-78954380D01*
X158964190Y-78954380D01*
X159059428Y-79002000D01*
X159107047Y-79049619D01*
X159154666Y-79144857D01*
X159154666Y-79240095D01*
X159107047Y-79382952D01*
X158535619Y-79954380D01*
X159154666Y-79954380D01*
X160011809Y-79287714D02*
X160011809Y-79954380D01*
X159773714Y-78906761D02*
X159535619Y-79621047D01*
X160154666Y-79621047D01*
X160964190Y-79287714D02*
X160964190Y-79954380D01*
X160726095Y-78906761D02*
X160488000Y-79621047D01*
X161107047Y-79621047D01*
X113692380Y-80478190D02*
X112692380Y-80478190D01*
X113597142Y-79430571D02*
X113644761Y-79478190D01*
X113692380Y-79621047D01*
X113692380Y-79716285D01*
X113644761Y-79859142D01*
X113549523Y-79954380D01*
X113454285Y-80002000D01*
X113263809Y-80049619D01*
X113120952Y-80049619D01*
X112930476Y-80002000D01*
X112835238Y-79954380D01*
X112740000Y-79859142D01*
X112692380Y-79716285D01*
X112692380Y-79621047D01*
X112740000Y-79478190D01*
X112787619Y-79430571D01*
X112692380Y-79097238D02*
X112692380Y-78478190D01*
X113073333Y-78811523D01*
X113073333Y-78668666D01*
X113120952Y-78573428D01*
X113168571Y-78525809D01*
X113263809Y-78478190D01*
X113501904Y-78478190D01*
X113597142Y-78525809D01*
X113644761Y-78573428D01*
X113692380Y-78668666D01*
X113692380Y-78954380D01*
X113644761Y-79049619D01*
X113597142Y-79097238D01*
X124642952Y-78954380D02*
X125309619Y-78954380D01*
X124881047Y-79954380D01*
X126119142Y-79287714D02*
X126119142Y-79954380D01*
X125881047Y-78906761D02*
X125642952Y-79621047D01*
X126262000Y-79621047D01*
X127119142Y-79954380D02*
X126642952Y-79954380D01*
X126642952Y-78954380D01*
X127404857Y-79906761D02*
X127547714Y-79954380D01*
X127785809Y-79954380D01*
X127881047Y-79906761D01*
X127928666Y-79859142D01*
X127976285Y-79763904D01*
X127976285Y-79668666D01*
X127928666Y-79573428D01*
X127881047Y-79525809D01*
X127785809Y-79478190D01*
X127595333Y-79430571D01*
X127500095Y-79382952D01*
X127452476Y-79335333D01*
X127404857Y-79240095D01*
X127404857Y-79144857D01*
X127452476Y-79049619D01*
X127500095Y-79002000D01*
X127595333Y-78954380D01*
X127833428Y-78954380D01*
X127976285Y-79002000D01*
X128357238Y-79049619D02*
X128404857Y-79002000D01*
X128500095Y-78954380D01*
X128738190Y-78954380D01*
X128833428Y-79002000D01*
X128881047Y-79049619D01*
X128928666Y-79144857D01*
X128928666Y-79240095D01*
X128881047Y-79382952D01*
X128309619Y-79954380D01*
X128928666Y-79954380D01*
X129785809Y-79287714D02*
X129785809Y-79954380D01*
X129547714Y-78906761D02*
X129309619Y-79621047D01*
X129928666Y-79621047D01*
X130785809Y-78954380D02*
X130309619Y-78954380D01*
X130262000Y-79430571D01*
X130309619Y-79382952D01*
X130404857Y-79335333D01*
X130642952Y-79335333D01*
X130738190Y-79382952D01*
X130785809Y-79430571D01*
X130833428Y-79525809D01*
X130833428Y-79763904D01*
X130785809Y-79859142D01*
X130738190Y-79906761D01*
X130642952Y-79954380D01*
X130404857Y-79954380D01*
X130309619Y-79906761D01*
X130262000Y-79859142D01*
X113692380Y-68032190D02*
X112692380Y-68032190D01*
X113597142Y-66984571D02*
X113644761Y-67032190D01*
X113692380Y-67175047D01*
X113692380Y-67270285D01*
X113644761Y-67413142D01*
X113549523Y-67508380D01*
X113454285Y-67556000D01*
X113263809Y-67603619D01*
X113120952Y-67603619D01*
X112930476Y-67556000D01*
X112835238Y-67508380D01*
X112740000Y-67413142D01*
X112692380Y-67270285D01*
X112692380Y-67175047D01*
X112740000Y-67032190D01*
X112787619Y-66984571D01*
X113692380Y-66032190D02*
X113692380Y-66603619D01*
X113692380Y-66317904D02*
X112692380Y-66317904D01*
X112835238Y-66413142D01*
X112930476Y-66508380D01*
X112978095Y-66603619D01*
X124388952Y-66508380D02*
X125055619Y-66508380D01*
X124627047Y-67508380D01*
X125865142Y-66841714D02*
X125865142Y-67508380D01*
X125627047Y-66460761D02*
X125388952Y-67175047D01*
X126008000Y-67175047D01*
X126865142Y-67508380D02*
X126388952Y-67508380D01*
X126388952Y-66508380D01*
X127150857Y-67460761D02*
X127293714Y-67508380D01*
X127531809Y-67508380D01*
X127627047Y-67460761D01*
X127674666Y-67413142D01*
X127722285Y-67317904D01*
X127722285Y-67222666D01*
X127674666Y-67127428D01*
X127627047Y-67079809D01*
X127531809Y-67032190D01*
X127341333Y-66984571D01*
X127246095Y-66936952D01*
X127198476Y-66889333D01*
X127150857Y-66794095D01*
X127150857Y-66698857D01*
X127198476Y-66603619D01*
X127246095Y-66556000D01*
X127341333Y-66508380D01*
X127579428Y-66508380D01*
X127722285Y-66556000D01*
X128103238Y-66603619D02*
X128150857Y-66556000D01*
X128246095Y-66508380D01*
X128484190Y-66508380D01*
X128579428Y-66556000D01*
X128627047Y-66603619D01*
X128674666Y-66698857D01*
X128674666Y-66794095D01*
X128627047Y-66936952D01*
X128055619Y-67508380D01*
X128674666Y-67508380D01*
X129531809Y-66841714D02*
X129531809Y-67508380D01*
X129293714Y-66460761D02*
X129055619Y-67175047D01*
X129674666Y-67175047D01*
X130531809Y-66508380D02*
X130055619Y-66508380D01*
X130008000Y-66984571D01*
X130055619Y-66936952D01*
X130150857Y-66889333D01*
X130388952Y-66889333D01*
X130484190Y-66936952D01*
X130531809Y-66984571D01*
X130579428Y-67079809D01*
X130579428Y-67317904D01*
X130531809Y-67413142D01*
X130484190Y-67460761D01*
X130388952Y-67508380D01*
X130150857Y-67508380D01*
X130055619Y-67460761D01*
X130008000Y-67413142D01*
%LPC*%
G36*
G01*
X171924000Y-123990000D02*
X171924000Y-122390000D01*
G75*
G02*
X172174000Y-122140000I250000J0D01*
G01*
X173774000Y-122140000D01*
G75*
G02*
X174024000Y-122390000I0J-250000D01*
G01*
X174024000Y-123990000D01*
G75*
G02*
X173774000Y-124240000I-250000J0D01*
G01*
X172174000Y-124240000D01*
G75*
G02*
X171924000Y-123990000I0J250000D01*
G01*
G37*
D12*
X136732000Y-109728000D03*
X141732000Y-109728000D03*
X169418000Y-67484000D03*
X169418000Y-62484000D03*
X107268000Y-122428000D03*
D13*
X112268000Y-122428000D03*
D14*
X120904000Y-90170000D03*
X169164000Y-105410000D03*
X123444000Y-90170000D03*
X166624000Y-105410000D03*
X125984000Y-90170000D03*
X164084000Y-105410000D03*
X128524000Y-90170000D03*
X161544000Y-105410000D03*
X131064000Y-90170000D03*
X159004000Y-105410000D03*
X133604000Y-90170000D03*
X156464000Y-105410000D03*
X136144000Y-90170000D03*
X153924000Y-105410000D03*
X138684000Y-90170000D03*
X151384000Y-105410000D03*
X141224000Y-90170000D03*
X148844000Y-105410000D03*
X143764000Y-90170000D03*
X146304000Y-105410000D03*
X146304000Y-90170000D03*
X143764000Y-105410000D03*
X148844000Y-90170000D03*
X141224000Y-105410000D03*
X151384000Y-90170000D03*
X138684000Y-105410000D03*
X153924000Y-90170000D03*
X136144000Y-105410000D03*
X156464000Y-90170000D03*
X133604000Y-105410000D03*
X159004000Y-90170000D03*
X131064000Y-105410000D03*
X161544000Y-90170000D03*
X128524000Y-105410000D03*
X164084000Y-90170000D03*
X125984000Y-105410000D03*
X166624000Y-90170000D03*
X123444000Y-105410000D03*
X169164000Y-90170000D03*
D13*
X120904000Y-105410000D03*
D14*
X146304000Y-63246000D03*
X164084000Y-70866000D03*
X148844000Y-63246000D03*
X161544000Y-70866000D03*
X151384000Y-63246000D03*
X159004000Y-70866000D03*
X153924000Y-63246000D03*
X156464000Y-70866000D03*
X156464000Y-63246000D03*
X153924000Y-70866000D03*
X159004000Y-63246000D03*
X151384000Y-70866000D03*
X161544000Y-63246000D03*
X148844000Y-70866000D03*
X164084000Y-63246000D03*
D13*
X146304000Y-70866000D03*
D14*
X138430000Y-59944000D03*
X135890000Y-59944000D03*
X133350000Y-59944000D03*
X130810000Y-59944000D03*
X128270000Y-59944000D03*
X125730000Y-59944000D03*
X123190000Y-59944000D03*
X120650000Y-59944000D03*
D13*
X118110000Y-59944000D03*
D14*
X174244000Y-78232000D03*
D12*
X174244000Y-65532000D03*
D14*
X115570000Y-101600000D03*
D12*
X115570000Y-114300000D03*
D14*
X115570000Y-98806000D03*
D12*
X115570000Y-86106000D03*
D15*
X178562000Y-67818000D03*
X178562000Y-70358000D03*
X178562000Y-72898000D03*
X178562000Y-75438000D03*
X178562000Y-77978000D03*
X178562000Y-80518000D03*
X178562000Y-83058000D03*
X178562000Y-85598000D03*
X178562000Y-88138000D03*
X178562000Y-90678000D03*
X178562000Y-93218000D03*
X178562000Y-95758000D03*
X178562000Y-98298000D03*
X178562000Y-100838000D03*
X178562000Y-103378000D03*
X178562000Y-105918000D03*
X178562000Y-108458000D03*
X178562000Y-110998000D03*
X178562000Y-113538000D03*
D16*
X178562000Y-116078000D03*
D15*
X107188000Y-116078000D03*
X107188000Y-113538000D03*
X107188000Y-110998000D03*
X107188000Y-108458000D03*
X107188000Y-105918000D03*
X107188000Y-103378000D03*
X107188000Y-100838000D03*
X107188000Y-98298000D03*
X107188000Y-95758000D03*
X107188000Y-93218000D03*
X107188000Y-90678000D03*
X107188000Y-88138000D03*
X107188000Y-85598000D03*
X107188000Y-83058000D03*
X107188000Y-80518000D03*
X107188000Y-77978000D03*
X107188000Y-75438000D03*
X107188000Y-72898000D03*
X107188000Y-70358000D03*
D16*
X107188000Y-67818000D03*
D14*
X156464000Y-125984000D03*
X171704000Y-133604000D03*
X159004000Y-125984000D03*
X169164000Y-133604000D03*
X161544000Y-125984000D03*
X166624000Y-133604000D03*
X164084000Y-125984000D03*
X164084000Y-133604000D03*
X166624000Y-125984000D03*
X161544000Y-133604000D03*
X169164000Y-125984000D03*
X159004000Y-133604000D03*
X171704000Y-125984000D03*
D13*
X156464000Y-133604000D03*
D14*
X136144000Y-125984000D03*
X151384000Y-133604000D03*
X138684000Y-125984000D03*
X148844000Y-133604000D03*
X141224000Y-125984000D03*
X146304000Y-133604000D03*
X143764000Y-125984000D03*
X143764000Y-133604000D03*
X146304000Y-125984000D03*
X141224000Y-133604000D03*
X148844000Y-125984000D03*
X138684000Y-133604000D03*
X151384000Y-125984000D03*
D13*
X136144000Y-133604000D03*
D14*
X115824000Y-125984000D03*
X131064000Y-133604000D03*
X118364000Y-125984000D03*
X128524000Y-133604000D03*
X120904000Y-125984000D03*
X125984000Y-133604000D03*
X123444000Y-125984000D03*
X123444000Y-133604000D03*
X125984000Y-125984000D03*
X120904000Y-133604000D03*
X128524000Y-125984000D03*
X118364000Y-133604000D03*
X131064000Y-125984000D03*
D13*
X115824000Y-133604000D03*
D14*
X146304000Y-113284000D03*
X169164000Y-120904000D03*
X148844000Y-113284000D03*
X166624000Y-120904000D03*
X151384000Y-113284000D03*
X164084000Y-120904000D03*
X153924000Y-113284000D03*
X161544000Y-120904000D03*
X156464000Y-113284000D03*
X159004000Y-120904000D03*
X159004000Y-113284000D03*
X156464000Y-120904000D03*
X161544000Y-113284000D03*
X153924000Y-120904000D03*
X164084000Y-113284000D03*
X151384000Y-120904000D03*
X166624000Y-113284000D03*
X148844000Y-120904000D03*
X169164000Y-113284000D03*
D13*
X146304000Y-120904000D03*
D14*
X120904000Y-113284000D03*
X138684000Y-120904000D03*
X123444000Y-113284000D03*
X136144000Y-120904000D03*
X125984000Y-113284000D03*
X133604000Y-120904000D03*
X128524000Y-113284000D03*
X131064000Y-120904000D03*
X131064000Y-113284000D03*
X128524000Y-120904000D03*
X133604000Y-113284000D03*
X125984000Y-120904000D03*
X136144000Y-113284000D03*
X123444000Y-120904000D03*
X138684000Y-113284000D03*
D13*
X120904000Y-120904000D03*
D14*
X146304000Y-75692000D03*
X169164000Y-83312000D03*
X148844000Y-75692000D03*
X166624000Y-83312000D03*
X151384000Y-75692000D03*
X164084000Y-83312000D03*
X153924000Y-75692000D03*
X161544000Y-83312000D03*
X156464000Y-75692000D03*
X159004000Y-83312000D03*
X159004000Y-75692000D03*
X156464000Y-83312000D03*
X161544000Y-75692000D03*
X153924000Y-83312000D03*
X164084000Y-75692000D03*
X151384000Y-83312000D03*
X166624000Y-75692000D03*
X148844000Y-83312000D03*
X169164000Y-75692000D03*
D13*
X146304000Y-83312000D03*
D14*
X115570000Y-75692000D03*
X138430000Y-83312000D03*
X118110000Y-75692000D03*
X135890000Y-83312000D03*
X120650000Y-75692000D03*
X133350000Y-83312000D03*
X123190000Y-75692000D03*
X130810000Y-83312000D03*
X125730000Y-75692000D03*
X128270000Y-83312000D03*
X128270000Y-75692000D03*
X125730000Y-83312000D03*
X130810000Y-75692000D03*
X123190000Y-83312000D03*
X133350000Y-75692000D03*
X120650000Y-83312000D03*
X135890000Y-75692000D03*
X118110000Y-83312000D03*
X138430000Y-75692000D03*
D13*
X115570000Y-83312000D03*
D14*
X115570000Y-63246000D03*
X138430000Y-70866000D03*
X118110000Y-63246000D03*
X135890000Y-70866000D03*
X120650000Y-63246000D03*
X133350000Y-70866000D03*
X123190000Y-63246000D03*
X130810000Y-70866000D03*
X125730000Y-63246000D03*
X128270000Y-70866000D03*
X128270000Y-63246000D03*
X125730000Y-70866000D03*
X130810000Y-63246000D03*
X123190000Y-70866000D03*
X133350000Y-63246000D03*
X120650000Y-70866000D03*
X135890000Y-63246000D03*
X118110000Y-70866000D03*
X138430000Y-63246000D03*
D13*
X115570000Y-70866000D03*
M02*
