G04 #@! TF.GenerationSoftware,KiCad,Pcbnew,5.1.12-84ad8e8a86~92~ubuntu20.04.1*
G04 #@! TF.CreationDate,2022-08-04T15:06:03-04:00*
G04 #@! TF.ProjectId,burgertime-cpu7,62757267-6572-4746-996d-652d63707537,v1.1*
G04 #@! TF.SameCoordinates,Original*
G04 #@! TF.FileFunction,Copper,L1,Top*
G04 #@! TF.FilePolarity,Positive*
%FSLAX46Y46*%
G04 Gerber Fmt 4.6, Leading zero omitted, Abs format (unit mm)*
G04 Created by KiCad (PCBNEW 5.1.12-84ad8e8a86~92~ubuntu20.04.1) date 2022-08-04 15:06:03*
%MOMM*%
%LPD*%
G01*
G04 APERTURE LIST*
G04 #@! TA.AperFunction,ComponentPad*
%ADD10C,1.600000*%
G04 #@! TD*
G04 #@! TA.AperFunction,ComponentPad*
%ADD11R,1.600000X1.600000*%
G04 #@! TD*
G04 #@! TA.AperFunction,ComponentPad*
%ADD12O,1.600000X1.600000*%
G04 #@! TD*
G04 #@! TA.AperFunction,ComponentPad*
%ADD13O,1.700000X1.700000*%
G04 #@! TD*
G04 #@! TA.AperFunction,ComponentPad*
%ADD14R,1.700000X1.700000*%
G04 #@! TD*
G04 #@! TA.AperFunction,ViaPad*
%ADD15C,0.800000*%
G04 #@! TD*
G04 #@! TA.AperFunction,Conductor*
%ADD16C,1.500000*%
G04 #@! TD*
G04 #@! TA.AperFunction,Conductor*
%ADD17C,0.250000*%
G04 #@! TD*
G04 APERTURE END LIST*
G04 #@! TA.AperFunction,ComponentPad*
G36*
G01*
X171924000Y-123990000D02*
X171924000Y-122390000D01*
G75*
G02*
X172174000Y-122140000I250000J0D01*
G01*
X173774000Y-122140000D01*
G75*
G02*
X174024000Y-122390000I0J-250000D01*
G01*
X174024000Y-123990000D01*
G75*
G02*
X173774000Y-124240000I-250000J0D01*
G01*
X172174000Y-124240000D01*
G75*
G02*
X171924000Y-123990000I0J250000D01*
G01*
G37*
G04 #@! TD.AperFunction*
D10*
X136732000Y-109728000D03*
X141732000Y-109728000D03*
X169418000Y-67484000D03*
X169418000Y-62484000D03*
X107268000Y-122428000D03*
D11*
X112268000Y-122428000D03*
D12*
X120904000Y-90170000D03*
X169164000Y-105410000D03*
X123444000Y-90170000D03*
X166624000Y-105410000D03*
X125984000Y-90170000D03*
X164084000Y-105410000D03*
X128524000Y-90170000D03*
X161544000Y-105410000D03*
X131064000Y-90170000D03*
X159004000Y-105410000D03*
X133604000Y-90170000D03*
X156464000Y-105410000D03*
X136144000Y-90170000D03*
X153924000Y-105410000D03*
X138684000Y-90170000D03*
X151384000Y-105410000D03*
X141224000Y-90170000D03*
X148844000Y-105410000D03*
X143764000Y-90170000D03*
X146304000Y-105410000D03*
X146304000Y-90170000D03*
X143764000Y-105410000D03*
X148844000Y-90170000D03*
X141224000Y-105410000D03*
X151384000Y-90170000D03*
X138684000Y-105410000D03*
X153924000Y-90170000D03*
X136144000Y-105410000D03*
X156464000Y-90170000D03*
X133604000Y-105410000D03*
X159004000Y-90170000D03*
X131064000Y-105410000D03*
X161544000Y-90170000D03*
X128524000Y-105410000D03*
X164084000Y-90170000D03*
X125984000Y-105410000D03*
X166624000Y-90170000D03*
X123444000Y-105410000D03*
X169164000Y-90170000D03*
D11*
X120904000Y-105410000D03*
D12*
X146304000Y-63246000D03*
X164084000Y-70866000D03*
X148844000Y-63246000D03*
X161544000Y-70866000D03*
X151384000Y-63246000D03*
X159004000Y-70866000D03*
X153924000Y-63246000D03*
X156464000Y-70866000D03*
X156464000Y-63246000D03*
X153924000Y-70866000D03*
X159004000Y-63246000D03*
X151384000Y-70866000D03*
X161544000Y-63246000D03*
X148844000Y-70866000D03*
X164084000Y-63246000D03*
D11*
X146304000Y-70866000D03*
D12*
X138430000Y-59944000D03*
X135890000Y-59944000D03*
X133350000Y-59944000D03*
X130810000Y-59944000D03*
X128270000Y-59944000D03*
X125730000Y-59944000D03*
X123190000Y-59944000D03*
X120650000Y-59944000D03*
D11*
X118110000Y-59944000D03*
D12*
X174244000Y-78232000D03*
D10*
X174244000Y-65532000D03*
D12*
X115570000Y-101600000D03*
D10*
X115570000Y-114300000D03*
D12*
X115570000Y-98806000D03*
D10*
X115570000Y-86106000D03*
D13*
X178562000Y-67818000D03*
X178562000Y-70358000D03*
X178562000Y-72898000D03*
X178562000Y-75438000D03*
X178562000Y-77978000D03*
X178562000Y-80518000D03*
X178562000Y-83058000D03*
X178562000Y-85598000D03*
X178562000Y-88138000D03*
X178562000Y-90678000D03*
X178562000Y-93218000D03*
X178562000Y-95758000D03*
X178562000Y-98298000D03*
X178562000Y-100838000D03*
X178562000Y-103378000D03*
X178562000Y-105918000D03*
X178562000Y-108458000D03*
X178562000Y-110998000D03*
X178562000Y-113538000D03*
D14*
X178562000Y-116078000D03*
D13*
X107188000Y-116078000D03*
X107188000Y-113538000D03*
X107188000Y-110998000D03*
X107188000Y-108458000D03*
X107188000Y-105918000D03*
X107188000Y-103378000D03*
X107188000Y-100838000D03*
X107188000Y-98298000D03*
X107188000Y-95758000D03*
X107188000Y-93218000D03*
X107188000Y-90678000D03*
X107188000Y-88138000D03*
X107188000Y-85598000D03*
X107188000Y-83058000D03*
X107188000Y-80518000D03*
X107188000Y-77978000D03*
X107188000Y-75438000D03*
X107188000Y-72898000D03*
X107188000Y-70358000D03*
D14*
X107188000Y-67818000D03*
D12*
X156464000Y-125984000D03*
X171704000Y-133604000D03*
X159004000Y-125984000D03*
X169164000Y-133604000D03*
X161544000Y-125984000D03*
X166624000Y-133604000D03*
X164084000Y-125984000D03*
X164084000Y-133604000D03*
X166624000Y-125984000D03*
X161544000Y-133604000D03*
X169164000Y-125984000D03*
X159004000Y-133604000D03*
X171704000Y-125984000D03*
D11*
X156464000Y-133604000D03*
D12*
X136144000Y-125984000D03*
X151384000Y-133604000D03*
X138684000Y-125984000D03*
X148844000Y-133604000D03*
X141224000Y-125984000D03*
X146304000Y-133604000D03*
X143764000Y-125984000D03*
X143764000Y-133604000D03*
X146304000Y-125984000D03*
X141224000Y-133604000D03*
X148844000Y-125984000D03*
X138684000Y-133604000D03*
X151384000Y-125984000D03*
D11*
X136144000Y-133604000D03*
D12*
X115824000Y-125984000D03*
X131064000Y-133604000D03*
X118364000Y-125984000D03*
X128524000Y-133604000D03*
X120904000Y-125984000D03*
X125984000Y-133604000D03*
X123444000Y-125984000D03*
X123444000Y-133604000D03*
X125984000Y-125984000D03*
X120904000Y-133604000D03*
X128524000Y-125984000D03*
X118364000Y-133604000D03*
X131064000Y-125984000D03*
D11*
X115824000Y-133604000D03*
D12*
X146304000Y-113284000D03*
X169164000Y-120904000D03*
X148844000Y-113284000D03*
X166624000Y-120904000D03*
X151384000Y-113284000D03*
X164084000Y-120904000D03*
X153924000Y-113284000D03*
X161544000Y-120904000D03*
X156464000Y-113284000D03*
X159004000Y-120904000D03*
X159004000Y-113284000D03*
X156464000Y-120904000D03*
X161544000Y-113284000D03*
X153924000Y-120904000D03*
X164084000Y-113284000D03*
X151384000Y-120904000D03*
X166624000Y-113284000D03*
X148844000Y-120904000D03*
X169164000Y-113284000D03*
D11*
X146304000Y-120904000D03*
D12*
X120904000Y-113284000D03*
X138684000Y-120904000D03*
X123444000Y-113284000D03*
X136144000Y-120904000D03*
X125984000Y-113284000D03*
X133604000Y-120904000D03*
X128524000Y-113284000D03*
X131064000Y-120904000D03*
X131064000Y-113284000D03*
X128524000Y-120904000D03*
X133604000Y-113284000D03*
X125984000Y-120904000D03*
X136144000Y-113284000D03*
X123444000Y-120904000D03*
X138684000Y-113284000D03*
D11*
X120904000Y-120904000D03*
D12*
X146304000Y-75692000D03*
X169164000Y-83312000D03*
X148844000Y-75692000D03*
X166624000Y-83312000D03*
X151384000Y-75692000D03*
X164084000Y-83312000D03*
X153924000Y-75692000D03*
X161544000Y-83312000D03*
X156464000Y-75692000D03*
X159004000Y-83312000D03*
X159004000Y-75692000D03*
X156464000Y-83312000D03*
X161544000Y-75692000D03*
X153924000Y-83312000D03*
X164084000Y-75692000D03*
X151384000Y-83312000D03*
X166624000Y-75692000D03*
X148844000Y-83312000D03*
X169164000Y-75692000D03*
D11*
X146304000Y-83312000D03*
D12*
X115570000Y-75692000D03*
X138430000Y-83312000D03*
X118110000Y-75692000D03*
X135890000Y-83312000D03*
X120650000Y-75692000D03*
X133350000Y-83312000D03*
X123190000Y-75692000D03*
X130810000Y-83312000D03*
X125730000Y-75692000D03*
X128270000Y-83312000D03*
X128270000Y-75692000D03*
X125730000Y-83312000D03*
X130810000Y-75692000D03*
X123190000Y-83312000D03*
X133350000Y-75692000D03*
X120650000Y-83312000D03*
X135890000Y-75692000D03*
X118110000Y-83312000D03*
X138430000Y-75692000D03*
D11*
X115570000Y-83312000D03*
D12*
X115570000Y-63246000D03*
X138430000Y-70866000D03*
X118110000Y-63246000D03*
X135890000Y-70866000D03*
X120650000Y-63246000D03*
X133350000Y-70866000D03*
X123190000Y-63246000D03*
X130810000Y-70866000D03*
X125730000Y-63246000D03*
X128270000Y-70866000D03*
X128270000Y-63246000D03*
X125730000Y-70866000D03*
X130810000Y-63246000D03*
X123190000Y-70866000D03*
X133350000Y-63246000D03*
X120650000Y-70866000D03*
X135890000Y-63246000D03*
X118110000Y-70866000D03*
X138430000Y-63246000D03*
D11*
X115570000Y-70866000D03*
D15*
X123444000Y-109728000D03*
X120904000Y-109728000D03*
X120650000Y-96774000D03*
X141224004Y-60706000D03*
X124714000Y-86106000D03*
X125984000Y-102362000D03*
X109220000Y-117856000D03*
X109220000Y-69088000D03*
X119126000Y-88646000D03*
X133604000Y-98552000D03*
X121158002Y-87630000D03*
X173736000Y-98298000D03*
X174752000Y-87884000D03*
X137160000Y-66802000D03*
X137414000Y-92201996D03*
X151638000Y-73660000D03*
X129540000Y-87339010D03*
X123190000Y-101563010D03*
X127254000Y-86106000D03*
X131572000Y-85344000D03*
X165354000Y-118872000D03*
X115316000Y-117856000D03*
X136906000Y-116332000D03*
X148844000Y-132080000D03*
X117602000Y-93980000D03*
X121920000Y-93980000D03*
X167894000Y-110998000D03*
X109728000Y-76200000D03*
X152654000Y-102616000D03*
X173228004Y-102870000D03*
X172466000Y-83312000D03*
X159004000Y-81026000D03*
X160274000Y-99568000D03*
X156464000Y-78486000D03*
X162814000Y-109982000D03*
X165354000Y-88138000D03*
X162814000Y-88138000D03*
X155194000Y-101600000D03*
X152400000Y-79248000D03*
X109981998Y-79502000D03*
X147574000Y-103632000D03*
X131064000Y-101600000D03*
X120904000Y-123698000D03*
X175296989Y-120432989D03*
X128524000Y-93218000D03*
X169164000Y-106934000D03*
X165354000Y-107696000D03*
X156210000Y-111251992D03*
X160274000Y-108712000D03*
X148844000Y-109982004D03*
X155194002Y-109220000D03*
X153924000Y-128016000D03*
X144148136Y-109383875D03*
X149606000Y-108458000D03*
X138684000Y-116332000D03*
X129794000Y-115316000D03*
X174498000Y-118871998D03*
X138684000Y-131064000D03*
X127254000Y-130810000D03*
X120904000Y-130810000D03*
X173444001Y-93434001D03*
X132334000Y-97536000D03*
X176022000Y-118364000D03*
X108966000Y-71628000D03*
X173228000Y-72898000D03*
X173189573Y-119707979D03*
X150114000Y-77978000D03*
X165100000Y-101854000D03*
X156210000Y-92456000D03*
X157734000Y-79502000D03*
X176747002Y-119416998D03*
X141224000Y-131064000D03*
X136144000Y-131064000D03*
X128778000Y-131318000D03*
X141224000Y-96774000D03*
D16*
X123444000Y-113284000D02*
X123444000Y-109728000D01*
X120904000Y-109728000D02*
X120904000Y-105410000D01*
X169164000Y-79756000D02*
X169164000Y-83312000D01*
X170914001Y-78005999D02*
X169164000Y-79756000D01*
X169418000Y-67484000D02*
X170914001Y-68980001D01*
X169164000Y-83312000D02*
X169164000Y-90170000D01*
X120650000Y-105156000D02*
X120904000Y-105410000D01*
X120650000Y-96774000D02*
X120650000Y-105156000D01*
X138684000Y-120904000D02*
X133604000Y-125984000D01*
X133604000Y-125984000D02*
X133604000Y-128524000D01*
X131064000Y-131064000D02*
X131064000Y-133604000D01*
X133604000Y-128524000D02*
X131064000Y-131064000D01*
X141224000Y-80518000D02*
X138430000Y-83312000D01*
X141224000Y-73914000D02*
X141224000Y-80518000D01*
X138430000Y-70866000D02*
X138430000Y-71120000D01*
X141224004Y-68071996D02*
X141224004Y-60706000D01*
X141224004Y-73913996D02*
X141224000Y-73914000D01*
X141224000Y-70866000D02*
X141224004Y-70865996D01*
X138430000Y-70866000D02*
X141224000Y-70866000D01*
X141224004Y-70865996D02*
X141224004Y-73913996D01*
X141224004Y-68071996D02*
X141224004Y-70865996D01*
D17*
X166370000Y-128270000D02*
X171704000Y-133604000D01*
X163830000Y-128270000D02*
X166370000Y-128270000D01*
X161544000Y-125984000D02*
X163830000Y-128270000D01*
D16*
X170919988Y-118016642D02*
X169164000Y-119772630D01*
X170919988Y-104117988D02*
X170919988Y-118016642D01*
X169164000Y-102362000D02*
X170919988Y-104117988D01*
X169164000Y-119772630D02*
X169164000Y-120904000D01*
X169164000Y-90170000D02*
X169164000Y-102362000D01*
X171450000Y-123190000D02*
X169164000Y-120904000D01*
X172974000Y-123190000D02*
X171450000Y-123190000D01*
X166036000Y-70866000D02*
X169418000Y-67484000D01*
X164084000Y-70866000D02*
X166036000Y-70866000D01*
X170434000Y-70866000D02*
X170914001Y-70385999D01*
X164084000Y-70866000D02*
X170434000Y-70866000D01*
X170914001Y-70385999D02*
X170914001Y-78005999D01*
X170914001Y-68980001D02*
X170914001Y-70385999D01*
X170914001Y-68980001D02*
X169525999Y-68980001D01*
X169525999Y-68980001D02*
X168656000Y-69850000D01*
X168656000Y-69850000D02*
X169926000Y-69850000D01*
X118110000Y-59944000D02*
X118110000Y-56896000D01*
X146304000Y-75692000D02*
X144018000Y-73406000D01*
D17*
X151384000Y-68326000D02*
X148844000Y-70866000D01*
X151384000Y-63246000D02*
X151384000Y-68326000D01*
X159004000Y-65786000D02*
X161544000Y-63246000D01*
X159004000Y-70866000D02*
X159004000Y-65786000D01*
D16*
X171196000Y-62484000D02*
X174244000Y-65532000D01*
X169418000Y-62484000D02*
X171196000Y-62484000D01*
X153924000Y-130810000D02*
X153924000Y-136144000D01*
X156464000Y-128270000D02*
X153924000Y-130810000D01*
X156464000Y-125984000D02*
X156464000Y-128270000D01*
X133604000Y-136144000D02*
X153924000Y-136144000D01*
X115824000Y-125984000D02*
X112268000Y-125984000D01*
X112268000Y-122428000D02*
X112268000Y-125984000D01*
X112268000Y-136144000D02*
X133604000Y-136144000D01*
X112268000Y-125984000D02*
X104902000Y-125984000D01*
X105410000Y-116078000D02*
X104902000Y-116586000D01*
X107188000Y-116078000D02*
X105410000Y-116078000D01*
X104902000Y-125984000D02*
X104902000Y-116586000D01*
X115570000Y-114300000D02*
X112268000Y-114300000D01*
X112268000Y-114300000D02*
X112268000Y-122428000D01*
X112268000Y-86106000D02*
X115570000Y-86106000D01*
X112268000Y-114300000D02*
X112268000Y-86106000D01*
X112268000Y-86106000D02*
X112268000Y-75692000D01*
X112268000Y-75692000D02*
X115570000Y-75692000D01*
X112268000Y-63500000D02*
X112014000Y-63246000D01*
X112014000Y-63246000D02*
X115570000Y-63246000D01*
X104902000Y-63246000D02*
X112014000Y-63246000D01*
X125984000Y-87376000D02*
X124714000Y-86106000D01*
X125984000Y-90170000D02*
X125984000Y-87376000D01*
X125984000Y-90170000D02*
X125984000Y-102362000D01*
X138684000Y-106680000D02*
X141732000Y-109728000D01*
X138684000Y-105410000D02*
X138684000Y-106680000D01*
X133604000Y-131191000D02*
X133604000Y-136144000D01*
X136144000Y-128651000D02*
X133604000Y-131191000D01*
X136144000Y-125984000D02*
X136144000Y-128651000D01*
X141418990Y-110041010D02*
X141732000Y-109728000D01*
X141418990Y-120709010D02*
X141418990Y-110041010D01*
X136144000Y-125984000D02*
X141418990Y-120709010D01*
X112014000Y-64516000D02*
X112268000Y-64770000D01*
X112268000Y-64770000D02*
X112268000Y-63500000D01*
X104902000Y-116586000D02*
X104902000Y-64516000D01*
X104902000Y-64516000D02*
X104902000Y-63246000D01*
X110490000Y-64516000D02*
X112268000Y-66294000D01*
X109982000Y-64516000D02*
X110490000Y-64516000D01*
X112268000Y-66294000D02*
X112268000Y-64770000D01*
X112268000Y-75692000D02*
X112268000Y-66294000D01*
X104902000Y-64516000D02*
X109982000Y-64516000D01*
X109982000Y-64516000D02*
X112014000Y-64516000D01*
X114046000Y-56896000D02*
X118110000Y-56896000D01*
X112268000Y-58674000D02*
X114046000Y-56896000D01*
X112014000Y-63246000D02*
X112268000Y-62992000D01*
X112268000Y-62992000D02*
X112268000Y-59944000D01*
X112268000Y-59944000D02*
X112268000Y-58674000D01*
X116078000Y-56896000D02*
X116332000Y-56896000D01*
X112268000Y-60706000D02*
X116078000Y-56896000D01*
X146304000Y-63246000D02*
X145034000Y-61976000D01*
X145034000Y-57658000D02*
X144272000Y-56896000D01*
X144272000Y-56896000D02*
X146304000Y-56896000D01*
X145034000Y-61976000D02*
X145034000Y-57658000D01*
X144018000Y-56896000D02*
X144272000Y-56896000D01*
X146304000Y-63246000D02*
X145034000Y-63246000D01*
X145034000Y-63246000D02*
X144018000Y-64262000D01*
X144018000Y-73406000D02*
X144018000Y-64262000D01*
X170688000Y-56896000D02*
X169418000Y-56896000D01*
X170688000Y-61976000D02*
X170688000Y-56896000D01*
X171196000Y-62484000D02*
X170688000Y-61976000D01*
X169418000Y-62484000D02*
X172466000Y-65532000D01*
X172466000Y-65532000D02*
X174244000Y-65532000D01*
X146304000Y-57658000D02*
X147066000Y-56896000D01*
X146304000Y-58420000D02*
X146304000Y-57658000D01*
X146304000Y-56896000D02*
X147066000Y-56896000D01*
X146304000Y-56896000D02*
X146304000Y-58420000D01*
X146304000Y-58420000D02*
X146304000Y-63246000D01*
X144018000Y-57912000D02*
X143002000Y-56896000D01*
X144018000Y-58166000D02*
X144018000Y-57912000D01*
X143002000Y-56896000D02*
X144018000Y-56896000D01*
X118110000Y-56896000D02*
X143002000Y-56896000D01*
X144018000Y-64262000D02*
X144018000Y-58166000D01*
X144018000Y-58166000D02*
X144018000Y-56896000D01*
X168148000Y-56896000D02*
X169418000Y-58166000D01*
X169418000Y-58166000D02*
X169418000Y-56896000D01*
X169418000Y-62484000D02*
X169418000Y-58166000D01*
X147066000Y-56896000D02*
X168148000Y-56896000D01*
X168148000Y-56896000D02*
X169418000Y-56896000D01*
X104902000Y-125984000D02*
X104902000Y-126238000D01*
X104902000Y-126238000D02*
X105664000Y-127000000D01*
X105664000Y-127000000D02*
X112268000Y-127000000D01*
X112268000Y-127000000D02*
X112268000Y-136144000D01*
X112268000Y-125984000D02*
X112268000Y-127000000D01*
X113284000Y-127000000D02*
X114300000Y-125984000D01*
X112268000Y-127000000D02*
X113284000Y-127000000D01*
X180848000Y-115824000D02*
X180594000Y-116078000D01*
X180848000Y-65532000D02*
X180848000Y-115824000D01*
X174244000Y-65532000D02*
X180848000Y-65532000D01*
X174498000Y-136144000D02*
X153924000Y-136144000D01*
X174498000Y-126238000D02*
X174498000Y-136144000D01*
X180848000Y-126238000D02*
X174498000Y-126238000D01*
X180848000Y-116332000D02*
X180848000Y-126238000D01*
X180594000Y-116078000D02*
X180848000Y-116332000D01*
X178562000Y-116078000D02*
X180594000Y-116078000D01*
D17*
X109220000Y-117856000D02*
X109220000Y-104902000D01*
X109220000Y-104902000D02*
X110998000Y-103124000D01*
X110998000Y-70866000D02*
X109220000Y-69088000D01*
X110998000Y-103124000D02*
X110998000Y-70866000D01*
X135890000Y-80772000D02*
X135890000Y-83312000D01*
X137015001Y-79646999D02*
X135890000Y-80772000D01*
X137015001Y-75151999D02*
X137015001Y-79646999D01*
X135890000Y-74026998D02*
X137015001Y-75151999D01*
X135890000Y-70866000D02*
X135890000Y-74026998D01*
X120650000Y-59944000D02*
X120650000Y-63246000D01*
X119380000Y-88392000D02*
X119126000Y-88646000D01*
X120650000Y-76962000D02*
X119380000Y-78232000D01*
X119380000Y-78232000D02*
X119380000Y-88392000D01*
X120650000Y-75692000D02*
X120650000Y-76962000D01*
X119380000Y-64516000D02*
X120650000Y-63246000D01*
X119380000Y-73787000D02*
X119380000Y-64516000D01*
X120650000Y-75057000D02*
X119380000Y-73787000D01*
X120650000Y-75692000D02*
X120650000Y-75057000D01*
X133350000Y-82296000D02*
X133350000Y-83312000D01*
X134475001Y-81170999D02*
X133350000Y-82296000D01*
X134475001Y-75151999D02*
X134475001Y-81170999D01*
X133350000Y-74026998D02*
X134475001Y-75151999D01*
X133350000Y-70866000D02*
X133350000Y-74026998D01*
X134874000Y-91440000D02*
X133604000Y-92710000D01*
X134874000Y-84836000D02*
X134874000Y-91440000D01*
X133350000Y-83312000D02*
X134874000Y-84836000D01*
X133604000Y-92710000D02*
X133604000Y-98552000D01*
X123190000Y-59944000D02*
X123190000Y-63246000D01*
X122064999Y-64371001D02*
X123190000Y-63246000D01*
X122064999Y-73804999D02*
X122064999Y-64371001D01*
X123190000Y-74930000D02*
X122064999Y-73804999D01*
X123190000Y-75692000D02*
X123190000Y-74930000D01*
X123190000Y-80518000D02*
X121811999Y-81896001D01*
X123190000Y-75692000D02*
X123190000Y-80518000D01*
X121811999Y-81896001D02*
X121811999Y-86976003D01*
X121811999Y-86976003D02*
X121158002Y-87630000D01*
X174752000Y-94488000D02*
X174752000Y-87884000D01*
X173736000Y-95504000D02*
X174752000Y-94488000D01*
X173736000Y-98298000D02*
X173736000Y-95504000D01*
X130810000Y-81788000D02*
X130810000Y-83312000D01*
X131935001Y-80662999D02*
X130810000Y-81788000D01*
X131935001Y-75151999D02*
X131935001Y-80662999D01*
X130810000Y-74026998D02*
X131935001Y-75151999D01*
X130810000Y-70866000D02*
X130810000Y-74026998D01*
X125730000Y-59944000D02*
X125730000Y-63246000D01*
X137269001Y-81170999D02*
X137269001Y-92056997D01*
X138430000Y-80010000D02*
X137269001Y-81170999D01*
X138430000Y-75692000D02*
X138430000Y-80010000D01*
X137269001Y-92056997D02*
X137414000Y-92201996D01*
X138430000Y-75057000D02*
X138430000Y-75692000D01*
X137160000Y-73787000D02*
X138430000Y-75057000D01*
X137160000Y-66802000D02*
X137160000Y-73787000D01*
X128270000Y-81788000D02*
X128270000Y-83312000D01*
X129395001Y-80662999D02*
X128270000Y-81788000D01*
X129395001Y-75151999D02*
X129395001Y-80662999D01*
X128270000Y-74026998D02*
X129395001Y-75151999D01*
X128270000Y-70866000D02*
X128270000Y-74026998D01*
X128270000Y-59944000D02*
X128270000Y-63246000D01*
X150114000Y-76708000D02*
X150114000Y-75184000D01*
X147574000Y-79248000D02*
X150114000Y-76708000D01*
X150114000Y-75184000D02*
X151638000Y-73660000D01*
X147574000Y-86614000D02*
X147574000Y-79248000D01*
X146304000Y-87884000D02*
X147574000Y-86614000D01*
X146304000Y-90170000D02*
X146304000Y-87884000D01*
X124604999Y-66911001D02*
X128270000Y-63246000D01*
X124604999Y-74058999D02*
X124604999Y-66911001D01*
X125730000Y-75184000D02*
X124604999Y-74058999D01*
X125730000Y-75692000D02*
X125730000Y-75184000D01*
X126855001Y-79900999D02*
X125730000Y-81026000D01*
X126855001Y-75151999D02*
X126855001Y-79900999D01*
X125730000Y-74026998D02*
X126855001Y-75151999D01*
X125730000Y-81026000D02*
X125730000Y-83312000D01*
X125730000Y-70866000D02*
X125730000Y-74026998D01*
X130810000Y-64770000D02*
X130810000Y-63246000D01*
X129684999Y-65895001D02*
X130810000Y-64770000D01*
X129684999Y-74566999D02*
X129684999Y-65895001D01*
X130810000Y-75692000D02*
X129684999Y-74566999D01*
X129540000Y-81725205D02*
X129540000Y-87339010D01*
X130810000Y-80455205D02*
X129540000Y-81725205D01*
X130810000Y-75692000D02*
X130810000Y-80455205D01*
X124315001Y-82186999D02*
X123190000Y-83312000D01*
X124315001Y-74841500D02*
X124315001Y-82186999D01*
X123190000Y-73716499D02*
X124315001Y-74841500D01*
X123190000Y-70866000D02*
X123190000Y-73716499D01*
X123190000Y-92710000D02*
X123190000Y-101563010D01*
X122318999Y-91838999D02*
X123190000Y-92710000D01*
X123190000Y-83312000D02*
X123190000Y-88195004D01*
X123190000Y-88195004D02*
X122318999Y-89066005D01*
X122318999Y-89066005D02*
X122318999Y-91838999D01*
X133350000Y-59944000D02*
X133350000Y-63246000D01*
X128270000Y-80201205D02*
X128270000Y-75692000D01*
X127000000Y-81471205D02*
X128270000Y-80201205D01*
X127000000Y-85852000D02*
X127000000Y-81471205D01*
X127254000Y-86106000D02*
X127000000Y-85852000D01*
X130302000Y-61722000D02*
X131826000Y-61722000D01*
X129540000Y-62484000D02*
X130302000Y-61722000D01*
X131826000Y-61722000D02*
X133350000Y-63246000D01*
X129540000Y-64205501D02*
X129540000Y-62484000D01*
X127144999Y-66600502D02*
X129540000Y-64205501D01*
X127144999Y-74566999D02*
X127144999Y-66600502D01*
X128270000Y-75692000D02*
X127144999Y-74566999D01*
X120650000Y-81788000D02*
X120650000Y-83312000D01*
X121775001Y-80662999D02*
X120650000Y-81788000D01*
X121775001Y-75151999D02*
X121775001Y-80662999D01*
X120650000Y-74026998D02*
X121775001Y-75151999D01*
X120650000Y-70866000D02*
X120650000Y-74026998D01*
X120359002Y-83602998D02*
X120650000Y-83312000D01*
X118872000Y-90227004D02*
X120359002Y-88740002D01*
X120359002Y-88740002D02*
X120359002Y-83602998D01*
X118872000Y-123190000D02*
X118872000Y-90227004D01*
X119489001Y-123807001D02*
X118872000Y-123190000D01*
X119489001Y-126524001D02*
X119489001Y-123807001D01*
X120981000Y-128016000D02*
X119489001Y-126524001D01*
X123698000Y-128016000D02*
X120981000Y-128016000D01*
X125984000Y-130302000D02*
X123698000Y-128016000D01*
X125984000Y-133604000D02*
X125984000Y-130302000D01*
X135890000Y-59944000D02*
X135890000Y-63246000D01*
X132224999Y-66911001D02*
X135890000Y-63246000D01*
X132224999Y-74566999D02*
X132224999Y-66911001D01*
X133350000Y-75692000D02*
X132224999Y-74566999D01*
X133350000Y-80709205D02*
X133350000Y-75692000D01*
X132080000Y-81979205D02*
X133350000Y-80709205D01*
X132080000Y-84836000D02*
X132080000Y-81979205D01*
X131572000Y-85344000D02*
X132080000Y-84836000D01*
X118110000Y-77595590D02*
X118110000Y-83312000D01*
X119235001Y-75151999D02*
X119235001Y-76470589D01*
X118110000Y-74026998D02*
X119235001Y-75151999D01*
X119235001Y-76470589D02*
X118110000Y-77595590D01*
X118110000Y-70866000D02*
X118110000Y-74026998D01*
X122428000Y-129032000D02*
X123444000Y-130048000D01*
X118618000Y-129032000D02*
X122428000Y-129032000D01*
X117094000Y-127508000D02*
X118618000Y-129032000D01*
X117094000Y-124206000D02*
X117094000Y-127508000D01*
X118327001Y-122972999D02*
X117094000Y-124206000D01*
X123444000Y-130048000D02*
X123444000Y-133604000D01*
X118327001Y-84799001D02*
X118327001Y-122972999D01*
X118110000Y-84582000D02*
X118327001Y-84799001D01*
X118110000Y-83312000D02*
X118110000Y-84582000D01*
X138430000Y-59944000D02*
X138430000Y-63246000D01*
X134764999Y-66911001D02*
X138430000Y-63246000D01*
X134764999Y-74566999D02*
X134764999Y-66911001D01*
X135890000Y-75692000D02*
X134764999Y-74566999D01*
X155194000Y-64516000D02*
X153924000Y-63246000D01*
X155194000Y-85414501D02*
X155194000Y-64516000D01*
X156464000Y-86684501D02*
X155194000Y-85414501D01*
X156464000Y-90170000D02*
X156464000Y-86684501D01*
X115570000Y-83312000D02*
X115570000Y-84074000D01*
X116695001Y-97680999D02*
X115570000Y-98806000D01*
X116695001Y-85199001D02*
X116695001Y-97680999D01*
X115570000Y-84074000D02*
X116695001Y-85199001D01*
X136144000Y-117094000D02*
X136144000Y-120904000D01*
X136906000Y-116332000D02*
X136144000Y-117094000D01*
X116695001Y-80154999D02*
X115570000Y-81280000D01*
X115570000Y-81280000D02*
X115570000Y-83312000D01*
X116695001Y-71991001D02*
X116695001Y-80154999D01*
X115570000Y-70866000D02*
X116695001Y-71991001D01*
X117094000Y-116078000D02*
X115316000Y-117856000D01*
X117094000Y-100330000D02*
X117094000Y-116078000D01*
X115570000Y-98806000D02*
X117094000Y-100330000D01*
X165354000Y-122682000D02*
X165354000Y-118872000D01*
X166624000Y-123952000D02*
X165354000Y-122682000D01*
X166624000Y-125984000D02*
X166624000Y-123952000D01*
X148844000Y-132080000D02*
X148844000Y-125984000D01*
X148844000Y-68326000D02*
X146304000Y-70866000D01*
X148844000Y-63246000D02*
X148844000Y-68326000D01*
X147574000Y-76454000D02*
X147574000Y-72136000D01*
X148844000Y-125984000D02*
X147320000Y-127508000D01*
X143764000Y-123444000D02*
X143764000Y-110841013D01*
X145034000Y-109571013D02*
X145034000Y-103632000D01*
X145542000Y-127508000D02*
X145034000Y-127000000D01*
X142494000Y-81534000D02*
X147574000Y-76454000D01*
X147574000Y-72136000D02*
X146304000Y-70866000D01*
X145034000Y-124714000D02*
X143764000Y-123444000D01*
X142494000Y-90565002D02*
X142494000Y-81534000D01*
X147320000Y-127508000D02*
X145542000Y-127508000D01*
X143764000Y-110841013D02*
X145034000Y-109571013D01*
X145034000Y-127000000D02*
X145034000Y-124714000D01*
X144304001Y-92375003D02*
X142494000Y-90565002D01*
X145034000Y-103632000D02*
X144304001Y-102902001D01*
X144304001Y-102902001D02*
X144304001Y-92375003D01*
X117602000Y-85160501D02*
X117602000Y-93980000D01*
X116984999Y-84543500D02*
X117602000Y-85160501D01*
X116984999Y-81135001D02*
X116984999Y-84543500D01*
X117310001Y-80809999D02*
X116984999Y-81135001D01*
X117310001Y-76491999D02*
X117310001Y-80809999D01*
X118110000Y-75692000D02*
X117310001Y-76491999D01*
X122174000Y-94234000D02*
X122174000Y-124714000D01*
X122174000Y-124714000D02*
X120904000Y-125984000D01*
X121920000Y-93980000D02*
X122174000Y-94234000D01*
X146304000Y-120904000D02*
X146304000Y-121793000D01*
X148844000Y-118364000D02*
X146304000Y-120904000D01*
X148844000Y-113284000D02*
X148844000Y-118364000D01*
X150114000Y-132334000D02*
X148844000Y-133604000D01*
X150114000Y-124968000D02*
X150114000Y-132334000D01*
X146304000Y-121158000D02*
X150114000Y-124968000D01*
X146304000Y-120904000D02*
X146304000Y-121158000D01*
X146304000Y-79248000D02*
X146304000Y-83312000D01*
X148844000Y-76708000D02*
X146304000Y-79248000D01*
X148844000Y-75692000D02*
X148844000Y-76708000D01*
X148844000Y-112014000D02*
X148844000Y-113284000D01*
X147574000Y-110744000D02*
X148844000Y-112014000D01*
X147574000Y-104902000D02*
X147574000Y-110744000D01*
X145034000Y-102362000D02*
X147574000Y-104902000D01*
X145034000Y-87376000D02*
X145034000Y-102362000D01*
X146304000Y-86106000D02*
X145034000Y-87376000D01*
X146304000Y-83312000D02*
X146304000Y-86106000D01*
X166624000Y-83312000D02*
X166624000Y-88138000D01*
X165498999Y-89263001D02*
X165498999Y-92092999D01*
X166624000Y-88138000D02*
X165498999Y-89263001D01*
X165498999Y-92092999D02*
X167894000Y-94488000D01*
X167894000Y-94488000D02*
X167894000Y-110998000D01*
X109728000Y-77216000D02*
X109728000Y-76200000D01*
X108966000Y-77978000D02*
X109728000Y-77216000D01*
X108966000Y-88900000D02*
X108966000Y-77978000D01*
X107188000Y-90678000D02*
X108966000Y-88900000D01*
X164084000Y-83312000D02*
X164084000Y-90170000D01*
X153924000Y-80829004D02*
X152654000Y-82099004D01*
X153924000Y-75692000D02*
X153924000Y-80829004D01*
X152654000Y-82099004D02*
X152654000Y-102616000D01*
X172466000Y-102107996D02*
X172466000Y-83312000D01*
X173228004Y-102870000D02*
X172466000Y-102107996D01*
X159004000Y-78232000D02*
X156464000Y-75692000D01*
X159004000Y-81026000D02*
X159004000Y-78232000D01*
X159004000Y-83312000D02*
X159004000Y-90170000D01*
X159004000Y-75692000D02*
X160274000Y-76962000D01*
X160274000Y-76962000D02*
X160274000Y-99568000D01*
X156464000Y-83312000D02*
X156464000Y-78486000D01*
X165354000Y-75296998D02*
X165354000Y-88138000D01*
X161544000Y-75692000D02*
X162669001Y-74566999D01*
X162669001Y-74566999D02*
X164624001Y-74566999D01*
X164624001Y-74566999D02*
X165354000Y-75296998D01*
X162814000Y-109982000D02*
X162814000Y-88138000D01*
X155194000Y-87122000D02*
X155194000Y-101600000D01*
X153924000Y-85852000D02*
X155194000Y-87122000D01*
X153924000Y-83312000D02*
X153924000Y-85852000D01*
X162669001Y-77106999D02*
X164084000Y-75692000D01*
X162669001Y-84980999D02*
X162669001Y-77106999D01*
X161544000Y-86106000D02*
X162669001Y-84980999D01*
X161544000Y-90170000D02*
X161544000Y-86106000D01*
X152400000Y-79502000D02*
X152400000Y-79248000D01*
X151384000Y-80518000D02*
X152400000Y-79502000D01*
X151384000Y-83312000D02*
X151384000Y-80518000D01*
X107188000Y-105918000D02*
X109981998Y-103124002D01*
X109981998Y-103124002D02*
X109981998Y-79502000D01*
X148844000Y-83312000D02*
X148844000Y-86614000D01*
X148844000Y-86614000D02*
X147574000Y-87884000D01*
X147574000Y-87884000D02*
X147574000Y-103632000D01*
X127254000Y-104844315D02*
X130498315Y-101600000D01*
X125984000Y-125984000D02*
X124858999Y-124858999D01*
X130498315Y-101600000D02*
X131064000Y-101600000D01*
X124858999Y-124858999D02*
X124858999Y-119997001D01*
X124858999Y-119997001D02*
X127254000Y-117602000D01*
X127254000Y-117602000D02*
X127254000Y-104844315D01*
X168038999Y-76817001D02*
X169164000Y-75692000D01*
X168038999Y-88755001D02*
X168038999Y-76817001D01*
X166624000Y-90170000D02*
X168038999Y-88755001D01*
X119380000Y-91694000D02*
X120904000Y-90170000D01*
X119380000Y-122174000D02*
X119380000Y-91694000D01*
X120904000Y-123698000D02*
X119380000Y-122174000D01*
X178562000Y-93218000D02*
X175296989Y-96483011D01*
X175296989Y-96483011D02*
X175296989Y-120432989D01*
X123444000Y-119126000D02*
X123444000Y-120904000D01*
X124714000Y-117856000D02*
X123444000Y-119126000D01*
X124714000Y-93218000D02*
X124714000Y-117856000D01*
X123444000Y-91948000D02*
X124714000Y-93218000D01*
X123444000Y-90170000D02*
X123444000Y-91948000D01*
X128524000Y-90170000D02*
X128524000Y-93218000D01*
X169164000Y-106934000D02*
X169164000Y-113284000D01*
X164084000Y-118110000D02*
X164084000Y-120904000D01*
X165354000Y-116840000D02*
X164084000Y-118110000D01*
X165354000Y-107696000D02*
X165354000Y-116840000D01*
X134729001Y-114698999D02*
X128524000Y-120904000D01*
X134729001Y-93108999D02*
X134729001Y-114698999D01*
X136144000Y-91694000D02*
X134729001Y-93108999D01*
X136144000Y-90170000D02*
X136144000Y-91694000D01*
X153924000Y-105410000D02*
X156210000Y-107696000D01*
X156210000Y-107696000D02*
X156210000Y-111251992D01*
X160274000Y-119634000D02*
X159004000Y-120904000D01*
X160274000Y-108712000D02*
X160274000Y-119634000D01*
X148844000Y-105410000D02*
X148844000Y-109982004D01*
X152654000Y-111760002D02*
X155194002Y-109220000D01*
X152654000Y-119634000D02*
X152654000Y-111760002D01*
X153924000Y-120904000D02*
X152654000Y-119634000D01*
X153924000Y-120904000D02*
X153924000Y-128016000D01*
X143764000Y-105410000D02*
X143764000Y-108999739D01*
X143764000Y-108999739D02*
X144148136Y-109383875D01*
X148844000Y-120904000D02*
X150114000Y-119634000D01*
X150114000Y-119634000D02*
X150114000Y-108712000D01*
X150114000Y-108712000D02*
X149860000Y-108458000D01*
X149860000Y-108458000D02*
X149606000Y-108458000D01*
X137414000Y-115062000D02*
X138684000Y-116332000D01*
X137414000Y-112888998D02*
X137414000Y-115062000D01*
X135382000Y-110856998D02*
X137414000Y-112888998D01*
X135382000Y-106172000D02*
X135382000Y-110856998D01*
X136144000Y-105410000D02*
X135382000Y-106172000D01*
X129794000Y-106680000D02*
X128524000Y-105410000D01*
X129794000Y-115316000D02*
X129794000Y-106680000D01*
X178562000Y-80518000D02*
X176022000Y-83058000D01*
X174498000Y-96074795D02*
X174498000Y-118871998D01*
X176022000Y-83058000D02*
X176022000Y-94550795D01*
X176022000Y-94550795D02*
X174498000Y-96074795D01*
X138684000Y-125984000D02*
X138684000Y-131064000D01*
X120904000Y-130810000D02*
X120904000Y-133604000D01*
X127254000Y-119380000D02*
X127254000Y-130810000D01*
X128524000Y-118110000D02*
X127254000Y-119380000D01*
X128524000Y-113284000D02*
X128524000Y-118110000D01*
X173444001Y-79031999D02*
X173444001Y-93434001D01*
X174244000Y-78232000D02*
X173444001Y-79031999D01*
X131064000Y-113284000D02*
X132334000Y-112014000D01*
X132334000Y-112014000D02*
X132334000Y-97536000D01*
X178562000Y-95758000D02*
X176022000Y-98298000D01*
X176022000Y-98298000D02*
X176022000Y-118364000D01*
X107188000Y-77978000D02*
X108966000Y-76200000D01*
X108966000Y-76200000D02*
X108966000Y-71628000D01*
X173189573Y-104101573D02*
X173189573Y-119707979D01*
X171558001Y-102470001D02*
X173189573Y-104101573D01*
X173228000Y-72898000D02*
X173228000Y-77470000D01*
X171558001Y-79139999D02*
X171558001Y-102470001D01*
X173228000Y-77470000D02*
X171558001Y-79139999D01*
X151384000Y-108908998D02*
X151384000Y-113284000D01*
X150114000Y-107638998D02*
X151384000Y-108908998D01*
X150114000Y-77978000D02*
X150114000Y-107638998D01*
X162814000Y-119634000D02*
X161544000Y-120904000D01*
X162814000Y-112776000D02*
X162814000Y-119634000D01*
X164084000Y-107442000D02*
X164084000Y-111506000D01*
X165354000Y-106172000D02*
X164084000Y-107442000D01*
X165354000Y-102108000D02*
X165354000Y-106172000D01*
X164084000Y-111506000D02*
X162814000Y-112776000D01*
X165100000Y-101854000D02*
X165354000Y-102108000D01*
X156210000Y-92456000D02*
X156210000Y-102108000D01*
X156210000Y-102108000D02*
X157734000Y-103632000D01*
X157734000Y-119634000D02*
X156464000Y-120904000D01*
X157734000Y-103632000D02*
X157734000Y-119634000D01*
X161544000Y-113284000D02*
X161544000Y-108204000D01*
X161544000Y-108204000D02*
X160274000Y-106934000D01*
X160274000Y-106934000D02*
X160274000Y-103886000D01*
X160274000Y-103886000D02*
X157734000Y-101346000D01*
X157734000Y-101346000D02*
X157734000Y-79502000D01*
X178562000Y-105918000D02*
X176747002Y-107732998D01*
X176747002Y-107732998D02*
X176747002Y-119416998D01*
X141224000Y-131064000D02*
X141224000Y-133604000D01*
X136144000Y-131064000D02*
X136144000Y-133604000D01*
X131064000Y-125984000D02*
X131064000Y-129032000D01*
X131064000Y-129032000D02*
X128778000Y-131318000D01*
X142494000Y-98044000D02*
X141224000Y-96774000D01*
X143256000Y-108966000D02*
X142494000Y-108204000D01*
X143256000Y-110490000D02*
X143256000Y-108966000D01*
X142494000Y-111252000D02*
X143256000Y-110490000D01*
X142494000Y-132334000D02*
X142494000Y-111252000D01*
X143764000Y-133604000D02*
X142494000Y-132334000D01*
X142494000Y-108204000D02*
X142494000Y-98044000D01*
M02*
