G04 #@! TF.GenerationSoftware,KiCad,Pcbnew,5.1.12-84ad8e8a86~92~ubuntu20.04.1*
G04 #@! TF.CreationDate,2022-08-04T15:06:03-04:00*
G04 #@! TF.ProjectId,burgertime-cpu7,62757267-6572-4746-996d-652d63707537,v1.1*
G04 #@! TF.SameCoordinates,Original*
G04 #@! TF.FileFunction,Soldermask,Top*
G04 #@! TF.FilePolarity,Negative*
%FSLAX46Y46*%
G04 Gerber Fmt 4.6, Leading zero omitted, Abs format (unit mm)*
G04 Created by KiCad (PCBNEW 5.1.12-84ad8e8a86~92~ubuntu20.04.1) date 2022-08-04 15:06:03*
%MOMM*%
%LPD*%
G01*
G04 APERTURE LIST*
%ADD10C,1.600000*%
%ADD11R,1.600000X1.600000*%
%ADD12O,1.600000X1.600000*%
%ADD13O,1.700000X1.700000*%
%ADD14R,1.700000X1.700000*%
G04 APERTURE END LIST*
G36*
G01*
X171924000Y-123990000D02*
X171924000Y-122390000D01*
G75*
G02*
X172174000Y-122140000I250000J0D01*
G01*
X173774000Y-122140000D01*
G75*
G02*
X174024000Y-122390000I0J-250000D01*
G01*
X174024000Y-123990000D01*
G75*
G02*
X173774000Y-124240000I-250000J0D01*
G01*
X172174000Y-124240000D01*
G75*
G02*
X171924000Y-123990000I0J250000D01*
G01*
G37*
D10*
X136732000Y-109728000D03*
X141732000Y-109728000D03*
X169418000Y-67484000D03*
X169418000Y-62484000D03*
X107268000Y-122428000D03*
D11*
X112268000Y-122428000D03*
D12*
X120904000Y-90170000D03*
X169164000Y-105410000D03*
X123444000Y-90170000D03*
X166624000Y-105410000D03*
X125984000Y-90170000D03*
X164084000Y-105410000D03*
X128524000Y-90170000D03*
X161544000Y-105410000D03*
X131064000Y-90170000D03*
X159004000Y-105410000D03*
X133604000Y-90170000D03*
X156464000Y-105410000D03*
X136144000Y-90170000D03*
X153924000Y-105410000D03*
X138684000Y-90170000D03*
X151384000Y-105410000D03*
X141224000Y-90170000D03*
X148844000Y-105410000D03*
X143764000Y-90170000D03*
X146304000Y-105410000D03*
X146304000Y-90170000D03*
X143764000Y-105410000D03*
X148844000Y-90170000D03*
X141224000Y-105410000D03*
X151384000Y-90170000D03*
X138684000Y-105410000D03*
X153924000Y-90170000D03*
X136144000Y-105410000D03*
X156464000Y-90170000D03*
X133604000Y-105410000D03*
X159004000Y-90170000D03*
X131064000Y-105410000D03*
X161544000Y-90170000D03*
X128524000Y-105410000D03*
X164084000Y-90170000D03*
X125984000Y-105410000D03*
X166624000Y-90170000D03*
X123444000Y-105410000D03*
X169164000Y-90170000D03*
D11*
X120904000Y-105410000D03*
D12*
X146304000Y-63246000D03*
X164084000Y-70866000D03*
X148844000Y-63246000D03*
X161544000Y-70866000D03*
X151384000Y-63246000D03*
X159004000Y-70866000D03*
X153924000Y-63246000D03*
X156464000Y-70866000D03*
X156464000Y-63246000D03*
X153924000Y-70866000D03*
X159004000Y-63246000D03*
X151384000Y-70866000D03*
X161544000Y-63246000D03*
X148844000Y-70866000D03*
X164084000Y-63246000D03*
D11*
X146304000Y-70866000D03*
D12*
X138430000Y-59944000D03*
X135890000Y-59944000D03*
X133350000Y-59944000D03*
X130810000Y-59944000D03*
X128270000Y-59944000D03*
X125730000Y-59944000D03*
X123190000Y-59944000D03*
X120650000Y-59944000D03*
D11*
X118110000Y-59944000D03*
D12*
X174244000Y-78232000D03*
D10*
X174244000Y-65532000D03*
D12*
X115570000Y-101600000D03*
D10*
X115570000Y-114300000D03*
D12*
X115570000Y-98806000D03*
D10*
X115570000Y-86106000D03*
D13*
X178562000Y-67818000D03*
X178562000Y-70358000D03*
X178562000Y-72898000D03*
X178562000Y-75438000D03*
X178562000Y-77978000D03*
X178562000Y-80518000D03*
X178562000Y-83058000D03*
X178562000Y-85598000D03*
X178562000Y-88138000D03*
X178562000Y-90678000D03*
X178562000Y-93218000D03*
X178562000Y-95758000D03*
X178562000Y-98298000D03*
X178562000Y-100838000D03*
X178562000Y-103378000D03*
X178562000Y-105918000D03*
X178562000Y-108458000D03*
X178562000Y-110998000D03*
X178562000Y-113538000D03*
D14*
X178562000Y-116078000D03*
D13*
X107188000Y-116078000D03*
X107188000Y-113538000D03*
X107188000Y-110998000D03*
X107188000Y-108458000D03*
X107188000Y-105918000D03*
X107188000Y-103378000D03*
X107188000Y-100838000D03*
X107188000Y-98298000D03*
X107188000Y-95758000D03*
X107188000Y-93218000D03*
X107188000Y-90678000D03*
X107188000Y-88138000D03*
X107188000Y-85598000D03*
X107188000Y-83058000D03*
X107188000Y-80518000D03*
X107188000Y-77978000D03*
X107188000Y-75438000D03*
X107188000Y-72898000D03*
X107188000Y-70358000D03*
D14*
X107188000Y-67818000D03*
D12*
X156464000Y-125984000D03*
X171704000Y-133604000D03*
X159004000Y-125984000D03*
X169164000Y-133604000D03*
X161544000Y-125984000D03*
X166624000Y-133604000D03*
X164084000Y-125984000D03*
X164084000Y-133604000D03*
X166624000Y-125984000D03*
X161544000Y-133604000D03*
X169164000Y-125984000D03*
X159004000Y-133604000D03*
X171704000Y-125984000D03*
D11*
X156464000Y-133604000D03*
D12*
X136144000Y-125984000D03*
X151384000Y-133604000D03*
X138684000Y-125984000D03*
X148844000Y-133604000D03*
X141224000Y-125984000D03*
X146304000Y-133604000D03*
X143764000Y-125984000D03*
X143764000Y-133604000D03*
X146304000Y-125984000D03*
X141224000Y-133604000D03*
X148844000Y-125984000D03*
X138684000Y-133604000D03*
X151384000Y-125984000D03*
D11*
X136144000Y-133604000D03*
D12*
X115824000Y-125984000D03*
X131064000Y-133604000D03*
X118364000Y-125984000D03*
X128524000Y-133604000D03*
X120904000Y-125984000D03*
X125984000Y-133604000D03*
X123444000Y-125984000D03*
X123444000Y-133604000D03*
X125984000Y-125984000D03*
X120904000Y-133604000D03*
X128524000Y-125984000D03*
X118364000Y-133604000D03*
X131064000Y-125984000D03*
D11*
X115824000Y-133604000D03*
D12*
X146304000Y-113284000D03*
X169164000Y-120904000D03*
X148844000Y-113284000D03*
X166624000Y-120904000D03*
X151384000Y-113284000D03*
X164084000Y-120904000D03*
X153924000Y-113284000D03*
X161544000Y-120904000D03*
X156464000Y-113284000D03*
X159004000Y-120904000D03*
X159004000Y-113284000D03*
X156464000Y-120904000D03*
X161544000Y-113284000D03*
X153924000Y-120904000D03*
X164084000Y-113284000D03*
X151384000Y-120904000D03*
X166624000Y-113284000D03*
X148844000Y-120904000D03*
X169164000Y-113284000D03*
D11*
X146304000Y-120904000D03*
D12*
X120904000Y-113284000D03*
X138684000Y-120904000D03*
X123444000Y-113284000D03*
X136144000Y-120904000D03*
X125984000Y-113284000D03*
X133604000Y-120904000D03*
X128524000Y-113284000D03*
X131064000Y-120904000D03*
X131064000Y-113284000D03*
X128524000Y-120904000D03*
X133604000Y-113284000D03*
X125984000Y-120904000D03*
X136144000Y-113284000D03*
X123444000Y-120904000D03*
X138684000Y-113284000D03*
D11*
X120904000Y-120904000D03*
D12*
X146304000Y-75692000D03*
X169164000Y-83312000D03*
X148844000Y-75692000D03*
X166624000Y-83312000D03*
X151384000Y-75692000D03*
X164084000Y-83312000D03*
X153924000Y-75692000D03*
X161544000Y-83312000D03*
X156464000Y-75692000D03*
X159004000Y-83312000D03*
X159004000Y-75692000D03*
X156464000Y-83312000D03*
X161544000Y-75692000D03*
X153924000Y-83312000D03*
X164084000Y-75692000D03*
X151384000Y-83312000D03*
X166624000Y-75692000D03*
X148844000Y-83312000D03*
X169164000Y-75692000D03*
D11*
X146304000Y-83312000D03*
D12*
X115570000Y-75692000D03*
X138430000Y-83312000D03*
X118110000Y-75692000D03*
X135890000Y-83312000D03*
X120650000Y-75692000D03*
X133350000Y-83312000D03*
X123190000Y-75692000D03*
X130810000Y-83312000D03*
X125730000Y-75692000D03*
X128270000Y-83312000D03*
X128270000Y-75692000D03*
X125730000Y-83312000D03*
X130810000Y-75692000D03*
X123190000Y-83312000D03*
X133350000Y-75692000D03*
X120650000Y-83312000D03*
X135890000Y-75692000D03*
X118110000Y-83312000D03*
X138430000Y-75692000D03*
D11*
X115570000Y-83312000D03*
D12*
X115570000Y-63246000D03*
X138430000Y-70866000D03*
X118110000Y-63246000D03*
X135890000Y-70866000D03*
X120650000Y-63246000D03*
X133350000Y-70866000D03*
X123190000Y-63246000D03*
X130810000Y-70866000D03*
X125730000Y-63246000D03*
X128270000Y-70866000D03*
X128270000Y-63246000D03*
X125730000Y-70866000D03*
X130810000Y-63246000D03*
X123190000Y-70866000D03*
X133350000Y-63246000D03*
X120650000Y-70866000D03*
X135890000Y-63246000D03*
X118110000Y-70866000D03*
X138430000Y-63246000D03*
D11*
X115570000Y-70866000D03*
M02*
